<svg width="100" height="100" viewBox="0 0 100 100" fill="none" xmlns="http://www.w3.org/2000/svg">
<g clip-path="url(#clip0_89_2)">
<rect y="2" width="99" height="98" rx="49" fill="white"/>
<path fill-rule="evenodd" clip-rule="evenodd" d="M50.0414 0C22.3698 0 0 22.9167 0 51.2677C0 73.9302 14.3331 93.1135 34.2169 99.9031C36.7029 100.414 37.6135 98.8 37.6135 97.4427C37.6135 96.2542 37.5315 92.1802 37.5315 87.9354C23.6112 90.9917 20.7125 81.824 20.7125 81.824C18.4754 75.8823 15.1607 74.3552 15.1607 74.3552C10.6046 71.2146 15.4926 71.2146 15.4926 71.2146C20.5465 71.5542 23.1985 76.4771 23.1985 76.4771C27.6716 84.2854 34.8796 82.0792 37.7794 80.7208C38.1932 77.4104 39.5197 75.1187 40.9281 73.8458C29.8257 72.6573 18.1445 68.2438 18.1445 48.551C18.1445 42.949 20.1317 38.3656 23.2804 34.801C22.7836 33.5281 21.0433 28.2646 23.7782 21.2198C23.7782 21.2198 28.0035 19.8615 37.5305 26.4823C41.6094 25.3601 45.8159 24.7892 50.0414 24.7844C54.2666 24.7844 58.5738 25.3792 62.5512 26.4823C72.0793 19.8615 76.3045 21.2198 76.3045 21.2198C79.0394 28.2646 77.2981 33.5281 76.8013 34.801C80.033 38.3656 81.9382 42.949 81.9382 48.551C81.9382 68.2438 70.257 72.5719 59.0716 73.8458C60.8949 75.4583 62.4682 78.5135 62.4682 83.3521C62.4682 90.2271 62.3863 95.7448 62.3863 97.4417C62.3863 98.8 63.2979 100.414 65.7829 99.9042C85.6667 93.1125 99.9998 73.9302 99.9998 51.2677C100.082 22.9167 77.63 0 50.0414 0Z" fill="#24292F"/>
</g>
<defs>
<clipPath id="clip0_89_2">
<rect width="100" height="100" fill="white"/>
</clipPath>
</defs>
</svg>
