<svg version="1.0" xmlns="http://www.w3.org/2000/svg" width="480px" height="480px" viewBox="0 0 480 480" preserveAspectRatio="xMidYMid meet">
 <g fill="#5e9fbc">
  <path d="M0 240 l0 -240 240 0 240 0 0 240 0 240 -240 0 -240 0 0 -240z m142.35 173.35 c2 -1.35 3.90 -2.80 4.25 -3.20 0.35 -0.45 -0.25 -0.20 -1.30 0.55 -1.45 0.95 -2.55 1.30 -4.40 1.30 -2.15 0 -2.50 -0.15 -2.90 -1.30 -0.30 -0.70 -0.50 -1.85 -0.50 -2.55 0 -1.90 -0.40 -1.20 -2 3.40 -1.05 3 -1.30 4.35 -0.95 5 0.45 0.90 0.55 0.90 2.35 0.10 1 -0.50 3.45 -1.95 5.45 -3.30z m16.90 -14.35 c2.20 -2.20 3.85 -4 3.75 -4 -0.15 0 -2.05 1.80 -4.25 4 -2.20 2.20 -3.85 4 -3.75 4 0.15 0 2.05 -1.80 4.25 -4z m6.95 -7.30 c3.20 -3.50 2.80 -3.45 -0.70 0.05 -1.50 1.50 -2.50 2.75 -2.25 2.70 0.30 -0.05 1.60 -1.25 2.95 -2.75z m34.65 -2.05 c-0.10 -0.80 -0.20 -0.15 -0.20 1.35 0 1.50 0.10 2.15 0.20 1.40 0.10 -0.80 0.10 -2 0 -2.75z m-28.55 -5 c1.65 -1.85 2.70 -3.20 2.40 -3 -0.75 0.45 -5.90 6.35 -5.55 6.35 0.10 0 1.55 -1.50 3.15 -3.35z m28.70 -6.15 c0 -0.80 -0.10 -1.50 -0.20 -1.50 -0.15 0 -0.70 0.70 -1.30 1.50 l-1.05 1.50 1.25 0 c1.10 0 1.30 -0.20 1.30 -1.50z m2.30 -8.40 c-1.10 -0.25 -1.15 -0.20 -1.55 1.65 l-0.30 1.50 1.35 -1.50 c1.20 -1.30 1.25 -1.50 0.50 -1.65z m36.70 -10.10 c1.20 -0.40 1.15 -0.40 -0.35 -0.45 -1.55 -0.05 -1.65 -0.15 -1.65 -1.80 0 -1 0.40 -2.40 0.95 -3.15 0.50 -0.75 1.30 -1.95 1.75 -2.70 0.45 -0.80 1.15 -1.40 1.55 -1.40 0.55 0 0.75 -0.60 0.75 -2.30 0 -1.25 0.35 -3.50 0.80 -5 0.75 -2.65 0.80 -2.70 2.70 -2.70 1.05 0 2.50 0.20 3.20 0.50 0.80 0.30 1.35 0.30 1.55 0 0.20 -0.30 1.45 -0.50 2.80 -0.50 1.90 0 2.55 0.20 2.80 0.90 0.30 0.70 0.40 0.65 0.65 -0.40 0.25 -1.10 0.70 -1.30 4.80 -2.05 6.75 -1.25 14.70 -4.65 20.15 -8.50 1.50 -1.10 3.25 -1.95 3.90 -1.95 0.80 0 1.15 -0.30 1.15 -0.90 0 -1 1.90 -2.10 3.50 -2.10 0.70 0 1 -0.35 1 -1.15 0 -0.80 0.75 -1.75 2.40 -2.95 1.30 -1 3.15 -2.65 4.05 -3.60 1 -1.05 2.25 -1.80 2.90 -1.80 0.95 0 1.15 -0.25 1.15 -1.45 0 -0.85 0.20 -1.65 0.50 -1.80 1.25 -0.75 9.50 -12.60 9.50 -13.65 0 -0.15 0.50 -0.80 1.10 -1.45 0.80 -0.85 1.65 -1.15 3.10 -1.15 1.90 0 2.30 0.30 5.20 3.35 l3.20 3.40 -3.05 -3.65 c-2.60 -3.10 -3.05 -3.95 -3.05 -5.60 0 -1.70 0.20 -2.10 1.65 -2.80 0.85 -0.45 3 -1.95 4.70 -3.25 4.35 -3.40 7.10 -3.35 10.25 0.20 1.10 1.30 1.70 1.55 3.05 1.45 1.25 -0.10 3 0.45 6.15 2.05 13.50 6.80 23.85 9.05 29.20 6.35 2.90 -1.45 4.35 -2.80 5.55 -5.10 0.95 -1.85 1.05 -1.90 3.60 -1.90 5.45 0 18.40 -2.20 26.60 -4.50 4 -1.15 4.60 -1.15 -7.50 0.10 -8.35 0.85 -38.95 0.85 -46 0 -5.80 -0.70 -14.60 -2.20 -19.25 -3.25 -2.55 -0.55 -2.75 -0.75 -2.90 -2.15 -0.10 -1 0.60 -3 2.20 -6.15 1.25 -2.60 2.50 -5.25 2.65 -6 0.35 -1.30 0.45 -1.30 6.10 -1.65 3.15 -0.20 12.45 -0.60 20.70 -0.90 21.70 -0.75 35.15 -2.30 40.15 -4.60 1.95 -0.95 4.60 -3.45 4.60 -4.40 0 -0.85 -2.65 -2.50 -3.95 -2.50 -0.75 0 -1.80 0.35 -2.35 0.75 -0.90 0.70 -0.85 0.70 0.70 0.75 1.55 0 1.60 0.05 1.60 2.20 l0 2.15 -3.10 0.60 c-1.75 0.35 -3.60 0.75 -4.15 0.85 -1.05 0.30 -9.15 0.90 -22 1.70 -4.10 0.25 -13.95 0.60 -21.85 0.80 l-14.40 0.30 0 -7.35 c0 -5.85 -0.15 -7.45 -0.75 -8.05 -0.40 -0.45 -0.75 -1.55 -0.75 -2.45 0 -1.20 -0.30 -1.90 -1 -2.25 -1.15 -0.60 -1.40 -3.70 -0.35 -4.35 0.30 -0.20 2.65 -0.90 5.10 -1.55 2.50 -0.65 6.60 -2.15 9.15 -3.35 3.05 -1.45 5.80 -2.35 8.10 -2.70 3.80 -0.50 6.30 -1.50 3.90 -1.55 -1.25 0 -1.40 -0.15 -1.40 -1.80 0 -1.20 0.40 -2.30 1.30 -3.30 2.90 -3.45 5.20 -10.25 5.20 -15.25 0 -1.45 0.25 -3.20 0.50 -3.95 0.40 -1 0.35 -1.45 -0.15 -1.90 -0.40 -0.30 -0.95 -2.10 -1.30 -4.05 -0.75 -4.10 -1.95 -7.60 -4.05 -11.75 -0.80 -1.65 -1.50 -3.65 -1.50 -4.50 0 -1.15 -0.20 -1.50 -0.95 -1.50 -0.60 0 -2.15 -1.50 -4.20 -4.10 -3.50 -4.55 -6.40 -7.40 -12.70 -12.60 -2.30 -1.85 -4.15 -3.70 -4.15 -4.05 0 -0.35 -0.70 -0.75 -1.55 -0.95 -1.90 -0.35 -4.45 -2.15 -4.45 -3.10 0 -0.45 -0.55 -0.70 -1.50 -0.70 -2.10 0 -4.50 -1.30 -4.50 -2.45 0 -0.70 -0.50 -1 -2.10 -1.15 -1.20 -0.15 -3.90 -1.10 -6 -2.15 -3.80 -1.85 -3.90 -1.95 -3.85 -3.70 0 -1.70 0.30 -2 5.75 -6.05 3.15 -2.35 5.70 -4.30 5.70 -4.40 0 -0.10 -0.85 0.30 -1.85 0.90 -2.20 1.30 -3.25 1.90 -9.45 5.40 -3.20 1.80 -5.15 2.60 -6.40 2.60 l-1.80 0 0 -3.55 c0 -1.95 -0.20 -3.95 -0.50 -4.45 -0.25 -0.50 -0.60 -2.45 -0.75 -4.35 l-0.25 -3.40 3.40 -3 c13.65 -12.15 25.60 -22.95 25.60 -23.15 0 -0.10 -0.75 0.35 -1.60 1 -7.55 5.65 -7.35 5.50 -9.20 5.30 -1.70 -0.20 -1.85 -0.10 -2.85 2 -0.90 1.80 -2.45 3.20 -8.45 7.65 -5.15 3.85 -7.75 5.45 -8.70 5.45 -1.95 0 -3.70 -1.80 -3.70 -3.85 0 -1.50 -0.15 -1.65 -1.50 -1.65 -0.95 0 -1.65 -0.35 -2 -0.95 -0.65 -1.30 -7.40 -6.85 -10.10 -8.35 -3.60 -2 -10.20 -5.15 -11.65 -5.50 -0.70 -0.20 -1.45 -0.65 -1.60 -1 -0.15 -0.40 -0.80 -0.70 -1.45 -0.70 -0.65 0 -4.15 -0.65 -7.80 -1.50 -21.95 -4.90 -42.50 -2.40 -62.15 7.50 -7.50 3.80 -15.20 8.70 -19.10 12.20 -3.55 3.20 -5.15 3.15 -7.90 -0.20 -2.40 -2.95 -7.95 -7.70 -11.75 -10.10 -6.70 -4.20 -6.75 -4.10 -0.55 1.85 8.45 8.15 11.55 12.10 11.55 14.60 -0.05 1.55 -0.45 2.35 -2.25 4.30 -1.90 2.05 -2.40 2.35 -4.15 2.35 -1.75 0 -2.15 -0.20 -3.05 -1.70 -2.45 -3.95 -11 -10.80 -17.55 -14.05 -3.15 -1.55 -3.10 -1.50 2.05 2.65 2.10 1.65 5.75 5.10 8.15 7.65 4 4.25 4.30 4.70 4.30 6.70 0 2.10 0 2.15 -3.10 3.65 -1.75 0.85 -4.95 2.35 -7.10 3.30 -2.20 1 -5.35 2.85 -7.10 4.05 -1.80 1.30 -3.70 2.25 -4.45 2.25 -0.75 0 -2.30 -0.80 -3.65 -1.90 -2.40 -1.85 -9.70 -5.75 -12.10 -6.40 -0.70 -0.20 0.55 1 2.90 2.80 7.45 5.65 9.10 7.35 9.10 9.35 0 1.30 -0.45 2.35 -1.70 3.85 -4.15 5.10 -8.10 13.35 -10.05 21.05 -0.50 1.95 -1.10 3.70 -1.35 4 -0.20 0.25 -1.60 0.85 -3.05 1.30 l-2.60 0.85 2.65 0.05 c3 0.05 2.85 -0.45 2.10 7.05 -0.35 3.30 -0.35 7.30 0.05 13.15 0.55 8.05 0.50 8.50 -0.45 10.75 -1.20 2.75 -3.10 9.60 -3.10 11.05 0 0.60 -0.85 1.60 -2.10 2.45 -5.05 3.45 -11.10 11.50 -13.20 17.55 -1.30 3.65 -1.45 7.20 -0.50 10.30 0.55 1.85 0.60 1.70 0.40 -2.35 -0.15 -2.40 -0.05 -5.15 0.10 -6.10 0.30 -1.65 0.50 -1.80 2 -1.80 l1.60 0 0.70 5.90 c0.35 3.20 0.75 6.70 0.85 7.75 0.25 1.85 0.25 1.85 -1.55 1.85 -1 0 -1.80 0.20 -1.80 0.40 0 0.70 2.75 4.75 5.50 8.10 3.20 3.80 8.65 9.20 12.45 12.25 2.95 2.40 4.50 5.50 4.90 9.90 0.15 1.35 0.50 2.35 0.85 2.35 0.35 0 1.10 0.85 1.75 1.90 0.60 1 0.95 1.40 0.75 0.85 -0.20 -0.55 -0.40 -2 -0.40 -3.25 -0.05 -2.10 0.05 -2.25 1.40 -2.40 2.80 -0.35 3.65 0.30 6.95 5.05 3.85 5.45 10.15 13 14.05 16.85 2.75 2.65 2.80 2.70 2.80 1.35 0 -1.15 0.35 -1.55 2.40 -2.40 3.10 -1.40 6.60 -1.85 6.60 -0.90 0 0.55 0.50 0.70 2 0.55 1.75 -0.20 2.60 0.15 6.60 2.80 2.55 1.60 5.35 3.25 6.15 3.65 1.25 0.60 1.50 1.05 1.65 2.75 0.15 1.80 -0.10 2.25 -1.90 4.15 -2.40 2.45 -3.75 3.05 -6.90 3.05 -2.05 0 -2.70 -0.30 -5.10 -2.25 l-2.75 -2.25 -0.25 1.35 c-0.20 1.20 -0.55 1.40 -2.10 1.55 -1 0.10 -2.30 -0.10 -2.90 -0.40 -0.55 -0.30 -1 -0.40 -1 -0.25 0 0.10 2.20 1.35 4.90 2.70 4.45 2.20 6.50 2.95 12.50 4.55 2.05 0.50 2.10 0.60 2.10 2.60 0 1.65 0.15 1.95 0.60 1.50 0.35 -0.35 1.80 -0.60 3.25 -0.60 l2.65 0 0 2.55 0 2.60 1.25 -1.35 c0.90 -1 1.70 -1.30 3.20 -1.30 1.60 0 1.95 -0.15 1.75 -0.75 -0.20 -0.50 -1 -0.75 -2.30 -0.75 -3 0 -3.90 -0.70 -3.90 -3.05 0 -1.50 0.40 -2.50 1.50 -3.90 0.85 -1.05 2.15 -3.10 2.95 -4.60 l1.40 -2.70 2.45 0.05 c1.35 0 3.30 0.20 4.35 0.40 1.65 0.30 1.85 0.50 1.85 1.80 0 1.15 0.20 1.50 1 1.50 1 0 1 0.25 0.90 6.40 l-0.15 6.35 -2.75 0.25 -2.75 0.25 2.90 0.65 c2.55 0.60 2.85 0.80 2.85 1.95 0 1.25 0.05 1.30 1 0.40 0.85 -0.75 1.55 -0.85 5 -0.55 2.20 0.15 4.60 0.45 5.35 0.60 1.80 0.40 3.65 3.20 3.65 5.50 0 1.45 0.15 1.70 1.15 1.70 0.65 0 1.70 0.60 2.40 1.30 1.35 1.45 5.50 4.65 7.45 5.70 1 0.55 5.15 1.15 9.25 1.35 0.30 0.05 1.05 -0.15 1.75 -0.35z m-37.05 -5.35 c0 -1.90 -0.15 -4.30 -0.35 -5.35 l-0.35 -1.95 -1.40 2.05 -1.35 2.10 1.55 0 1.60 0 -0.25 3.25 c-0.15 1.80 -0.10 3.25 0.15 3.25 0.25 0 0.45 -1.50 0.40 -3.35z m46.55 -1.20 c0 -0.60 -0.35 -0.95 -1 -0.95 -0.70 0 -1 0.35 -1 1.20 0 0.95 0.20 1.15 1 0.95 0.55 -0.15 1 -0.70 1 -1.20z m-75.35 -12.40 c1.55 -0.35 2.85 -0.65 2.85 -0.70 0 -0.05 -3.35 -0.05 -7.40 0.05 -5.30 0.15 -8.55 0 -11.60 -0.60 -4.55 -0.85 -6.05 -0.70 -2.25 0.25 1.30 0.30 2.45 0.85 2.55 1.15 0.30 0.75 12.15 0.65 15.85 -0.15z m-24.15 -4.30 c0 -0.55 -0.55 -0.75 -2 -0.75 -1.45 0 -2 0.20 -2 0.75 0 0.55 0.55 0.75 2 0.75 1.45 0 2 -0.20 2 -0.75z m9.60 -11 c-0.15 -1 -0.50 -1.25 -1.70 -1.25 -0.85 0 -2.45 -0.70 -3.75 -1.60 -1.25 -0.85 -2.15 -1.30 -2 -1 0.20 0.25 1.35 1.15 2.60 1.95 1.25 0.80 2.25 1.80 2.25 2.30 0 0.60 0.40 0.85 1.45 0.85 1.25 0 1.40 -0.15 1.15 -1.25z m3.50 -4.75 c-0.15 -1.15 -0.45 -1.50 -1.30 -1.50 -0.95 0 -1.10 0.20 -0.90 1.50 0.15 1.15 0.45 1.50 1.30 1.50 0.95 0 1.10 -0.20 0.90 -1.50z m-15.10 -2.65 c0 -0.10 -0.95 -1.05 -2.10 -2.10 l-2.15 -2 2 2.15 c1.80 1.95 2.25 2.35 2.25 1.95z m-4.50 -5 c0 -0.10 -0.75 -0.80 -1.60 -1.65 l-1.65 -1.45 1.45 1.65 c1.40 1.50 1.80 1.85 1.80 1.45z m-4 -4.85 c-0.60 -0.80 -1.20 -1.50 -1.30 -1.50 -0.15 0 0.20 0.70 0.80 1.50 0.60 0.85 1.20 1.50 1.30 1.50 0.15 0 -0.20 -0.65 -0.80 -1.50z m-3.55 -5.50 c-1.15 -1.90 -2.15 -3.50 -2.25 -3.50 -0.30 0 1.75 4 2.90 5.65 1.70 2.40 1.40 1.45 -0.65 -2.15z m217.45 -56.35 c2.30 -0.95 1.80 -1.30 -1.35 -0.85 -2.05 0.25 -2.55 0.50 -2.55 1.30 0 1.05 0.45 1 3.90 -0.45z m21.15 -19.35 l1.15 -2.05 -2.10 1.85 c-1.10 1 -2.80 2.25 -3.70 2.75 l-1.65 0.90 1.40 0.15 c0.75 0.10 1.35 0.45 1.35 0.75 0.05 0.80 2.10 -1.75 3.55 -4.35z m-261.60 -5 c-0.10 -0.10 -1.20 -0.30 -2.40 -0.45 -1.45 -0.20 -2 -0.10 -1.50 0.20 0.65 0.40 4.40 0.70 3.90 0.25z m2.65 -5.90 c-0.45 -1.60 -0.50 -1.55 -0.50 1.10 -0.05 2.30 0.05 2.60 0.50 1.65 0.40 -0.80 0.40 -1.60 0 -2.75z m-11.95 1.50 c-0.55 -0.65 -1.30 -1.70 -1.70 -2.40 l-0.65 -1.25 -0.30 1.25 c-0.25 1.05 -0.65 1.30 -2.50 1.50 -2.70 0.30 -1.60 1 1.65 1.05 1.15 0 2.55 0.20 3.10 0.45 1.50 0.65 1.50 0.60 0.40 -0.60z m-12.15 -7 c-0.05 -1.30 -0.15 -1.50 -0.50 -0.80 -0.30 0.45 -0.35 1.15 -0.20 1.60 0.45 1.25 0.70 0.95 0.70 -0.80z m11.40 -2.95 l2.35 -0.05 -2.60 -0.75 -2.60 -0.80 -0.15 -2.30 -0.20 -2.30 -0.40 2.05 c-0.40 1.95 -0.55 2.10 -2.50 2.50 l-2.05 0.40 2.10 0.20 c2.05 0.15 2.10 0.20 2.75 2.75 l0.65 2.60 0.15 -2.10 0.15 -2.15 2.35 -0.05z m278.10 -16.35 c-0.35 -0.15 -0.80 0.10 -1.05 0.45 -0.80 1.25 -0.45 1.60 0.60 0.65 0.65 -0.60 0.80 -1 0.45 -1.10z"/>
  <path d="M207.70 342.80 c-0.15 -0.40 -0.20 -1.35 -0.10 -2.15 0.15 -1.35 0.30 -1.40 3.05 -1.55 l2.85 -0.15 0 2.30 0 2.25 -2.75 0 c-1.95 0 -2.85 -0.20 -3.05 -0.70z"/>
  <path d="M254.15 335.30 c-3.60 -0.90 -8.35 -3.35 -11.80 -6.10 -2.80 -2.20 -2.90 -2.40 -2.75 -4.40 l0.15 -2.05 5 -1.05 c2.75 -0.55 5.45 -1.20 5.95 -1.45 0.55 -0.25 2.40 -0.20 4.40 0.15 1.90 0.35 6 0.60 9.10 0.60 3.95 0 5.80 0.20 5.90 0.60 0.15 0.40 2.50 0.65 7.30 0.80 6.85 0.20 7.10 0.25 7.40 1.35 0.65 2.65 0.05 3.95 -2.80 5.85 -6.55 4.45 -12.95 6.40 -20.45 6.35 -2.65 0 -6 -0.30 -7.40 -0.65z"/>
  <path d="M218.65 332.75 c-2.55 -1.15 -2.65 -1.30 -2.65 -3.20 0 -1.10 0.25 -2.15 0.55 -2.35 1 -0.60 11.10 -2.15 14.10 -2.20 l2.85 0 0 2 c0 2.30 -2.25 5.25 -4.85 6.30 -2.60 1.10 -7 0.85 -10 -0.55z"/>
  <path d="M223.65 322.65 c-0.65 -0.10 -1.15 -0.60 -1.15 -1.05 0 -0.65 -0.10 -0.70 -0.45 -0.20 -0.50 0.80 -3.90 0.65 -9.90 -0.40 l-3.65 -0.60 0 -1.70 c0 -1.35 0.75 -2.75 3.60 -6.45 3.30 -4.40 3.70 -4.75 5.35 -4.75 2.05 0 9.55 3.45 9.55 4.40 0 0.30 0.60 0.60 1.30 0.60 1.50 0 9 1.85 10.30 2.55 0.60 0.35 0.90 1.05 0.90 2.40 0 1.65 -0.20 2 -1.85 2.90 -3.70 2.05 -9.90 3.10 -14 2.30z"/>
  <path d="M279.85 320.15 c-0.20 -0.15 -0.35 -1.20 -0.35 -2.25 l0 -1.90 2.25 0 2.25 0 0 2.25 0 2.25 -1.90 0 c-1.05 0 -2.10 -0.15 -2.25 -0.35z"/>
  <path d="M285.35 318.10 c-0.50 -0.55 -0.85 -1.75 -0.85 -2.95 0 -2 0 -2 2.90 -3.05 1.55 -0.60 3.95 -1.80 5.30 -2.70 1.35 -0.90 3.05 -2.05 3.85 -2.55 0.75 -0.50 2.50 -1 3.90 -1.20 l2.55 -0.30 0 1.75 c0 3.25 -4.45 8.20 -9.85 10.95 -2.50 1.25 -6.70 1.30 -7.80 0.05z"/>
  <path d="M191.50 314.85 c0 -1.25 0.60 -2.65 2 -4.70 1.10 -1.60 2.65 -4.45 3.45 -6.40 1.40 -3.50 1.40 -3.50 3.45 -3.65 1.70 -0.15 2.10 -0.35 2.10 -1.15 0 -0.75 0.35 -0.95 1.75 -0.95 1.50 0 2 0.35 3.75 2.65 2.50 3.40 2.60 5 0.35 7.95 -1.35 1.75 -2 2.20 -3.45 2.30 -1.65 0.15 -1.85 0.30 -2 1.70 -0.25 2.55 -2.20 3.60 -7.20 3.85 l-4.20 0.15 0 -1.75z"/>
  <path d="M249.20 316 c-1.30 -0.50 -2.35 -2.90 -2.10 -4.80 0.15 -1.30 0.35 -1.45 2.15 -1.60 1.70 -0.10 2.25 0.10 3.50 1.40 0.80 0.80 1.75 1.50 2.10 1.50 0.45 0 0.65 0.70 0.65 2 l0 2 -2.60 -0.05 c-1.45 0 -3.10 -0.20 -3.70 -0.45z"/>
  <path d="M258.40 313 c-1.20 -0.80 -3.05 -2.30 -4.10 -3.30 -1.55 -1.55 -1.85 -2.10 -1.70 -3.65 0.15 -1.60 0.30 -1.80 1.65 -1.95 0.85 -0.10 2.65 0.10 4.05 0.40 3.35 0.80 7.10 -0.25 11.80 -3.30 2.40 -1.50 3.95 -2.20 5.15 -2.20 1.60 0 1.75 0.15 1.75 1.40 0 2.20 -3.65 9.25 -6.15 11.80 l-2.20 2.30 -4 0 c-3.60 0 -4.20 -0.15 -6.25 -1.50z"/>
  <path d="M181.15 310.85 c-3.05 -2.40 -4.65 -4.50 -4.65 -6.30 0 -1.40 -0.15 -1.55 -1.65 -1.55 -1.20 0 -2.05 -0.45 -3.20 -1.60 -2.20 -2.35 -2.65 -3.50 -2.65 -6.65 0 -3.50 0.50 -4.50 3 -5.75 2.50 -1.30 5.75 -1.25 9.25 0.05 2.70 1 2.75 1.05 2.75 2.95 0 1.05 -0.20 2.05 -0.45 2.20 -0.25 0.20 -1.30 1.50 -2.35 2.95 l-1.85 2.60 2.85 -2.60 c3.95 -3.65 5.40 -3.65 8.50 0.05 3 3.50 3.10 5.55 0.50 9.70 -3.90 6.15 -6.10 7.05 -10.05 3.95z"/>
  <path d="M162.70 303.95 c-0.85 -0.25 -1.95 -0.90 -2.45 -1.45 -1.05 -1.15 -1.50 -4.95 -1.05 -8.20 0.35 -2.25 0.40 -2.30 2.25 -2.30 1.80 0 2.05 0.20 3.70 2.90 0.95 1.55 2.60 3.65 3.55 4.55 1.35 1.30 1.80 2.15 1.80 3.40 l0 1.65 -3.10 -0.05 c-1.75 0 -3.85 -0.25 -4.70 -0.50z"/>
  <path d="M215 300.70 c-3.65 -1.65 -6.50 -5.55 -6.50 -8.95 0 -1.65 0.10 -1.75 1.60 -1.75 0.90 0 3.65 1 6.20 2.30 3.30 1.65 5.85 2.50 9.15 3.05 l4.55 0.85 0 1.60 c0 1.40 -0.25 1.70 -2.10 2.45 -3 1.25 -10.60 1.50 -12.90 0.45z"/>
  <path d="M289.50 296.35 c0 -1.15 0.40 -2.05 1.20 -2.80 1.70 -1.60 2.75 -4 3.40 -7.55 l0.50 -3 1.90 0 c1.65 0 1.95 0.20 2.55 1.65 0.40 0.90 0.70 3.30 0.70 5.45 0 3.40 -0.15 3.95 -1.25 5.15 -1.65 1.80 -3.95 2.75 -6.75 2.75 -2.20 0 -2.25 0 -2.25 -1.65z"/>
  <path d="M365.60 295.85 c-1.10 -1.15 -1.60 -2.15 -1.60 -3.25 l0 -1.60 6 0 6 0 0 1.85 c0 1.30 -0.40 2.25 -1.35 3.25 -1.20 1.25 -1.70 1.40 -4.40 1.40 -2.80 0 -3.20 -0.15 -4.65 -1.65z"/>
  <path d="M150.15 295.20 c-2.15 -1.20 -3.15 -2.10 -3.15 -2.75 0 -0.75 -0.35 -0.95 -1.55 -0.95 -1.20 0 -2.25 -0.65 -4.80 -3.10 -4.50 -4.35 -4.85 -5.20 -4.45 -10.20 0.15 -2.25 0.45 -4.55 0.60 -5.05 0.25 -0.75 0.20 -0.75 -0.25 -0.15 -0.30 0.40 -0.80 2.40 -1.10 4.40 l-0.60 3.60 -1.60 0 c-1.15 0 -1.75 -0.30 -2.15 -1.10 -0.50 -1.10 -0.55 -1.05 -0.55 0.50 -0.05 1.50 -0.15 1.60 -2 1.60 -1.60 0 -2.20 -0.30 -3.50 -1.75 -1.40 -1.65 -1.55 -2.10 -1.55 -5.25 l0 -3.50 2.25 0 c1.45 0 2.25 0.20 2.30 0.65 0 0.30 0.50 1.70 1.15 3.10 l1.10 2.45 -0.20 -4.90 c-0.30 -6.40 0.60 -11.45 2.65 -15.15 1.50 -2.70 1.75 -2.90 3.55 -3.05 1.90 -0.10 2 -0.05 3.85 3.20 1.10 2 1.85 4 1.85 5 0 1.45 0.15 1.65 1.45 1.80 1.10 0.10 2.30 1.10 4.85 4.10 1.90 2.20 4.85 5.15 6.55 6.50 2.55 2.15 3.05 2.80 3.10 4.20 0.05 1.25 0.25 1.60 1.05 1.60 0.85 0 1 0.35 1 1.95 0 1.10 -0.20 2.10 -0.45 2.25 -0.45 0.30 -0.75 1.85 -1.45 7.55 -0.20 1.65 -0.55 3.30 -0.75 3.65 -0.75 1.15 -4 0.65 -7.20 -1.20z"/>
  <path d="M275.15 295.95 c-0.35 -0.35 -0.65 -1.35 -0.65 -2.15 0 -1.35 0.55 -2 3.75 -4.50 2.50 -1.95 4.55 -4.10 6.05 -6.35 2.20 -3.35 2.35 -3.45 4.30 -3.45 l2.05 0 -0.30 3.95 c-0.50 6.15 -1.95 8.90 -6.10 11.30 -2.45 1.45 -8.15 2.20 -9.10 1.20z"/>
  <path d="M304.10 291.90 c0.20 -2 0.80 -3.60 2.50 -6.40 l2.20 -3.75 3 0.10 c1.60 0.05 3.40 0.35 3.95 0.60 0.55 0.30 1.90 0.60 3 0.65 1.95 0.15 2 0.20 2.15 2.15 0.10 1.85 0 2.05 -1.65 2.90 -2.50 1.20 -5.50 1.15 -6.40 -0.15 -0.70 -1 -0.75 -0.90 -1.10 1.30 -0.50 3.40 -2.40 5.20 -5.50 5.20 l-2.35 0 0.20 -2.60z"/>
  <path d="M272.50 284.90 c0 -1.40 0.55 -2.20 3.40 -5.05 2.95 -2.95 3.60 -3.35 5.25 -3.35 l1.85 0 0 3.45 c0 2.95 -0.20 3.70 -1.20 4.90 -1.10 1.25 -1.55 1.40 -5.25 1.55 l-4.05 0.20 0 -1.70z"/>
  <path d="M321.65 279.35 c-1.50 -0.50 -1.65 -0.75 -1.65 -2.70 0 -1.15 0.20 -3.10 0.50 -4.25 0.25 -1.20 0.60 -2.75 0.75 -3.50 l0.25 -1.40 6.25 0 6.25 0 0 2.25 c0 2.45 -0.65 4.10 -3.20 7.85 l-1.55 2.35 -3 -0.05 c-1.65 0 -3.75 -0.30 -4.60 -0.55z"/>
  <path d="M309.95 275.25 c-0.95 -0.50 -1.40 -1.25 -1.65 -2.60 -0.45 -2.80 -0.35 -5.05 0.20 -5.40 0.30 -0.20 2.35 -0.15 4.55 0.05 l4.05 0.35 -0.30 3.25 c-0.45 4.50 -0.90 5.10 -3.45 5.10 -1.15 -0.05 -2.70 -0.35 -3.40 -0.75z"/>
  <path d="M178.15 274.15 c-0.75 -0.50 -1.15 -1.30 -1.15 -2.20 0 -0.90 -0.25 -1.45 -0.70 -1.45 -1.45 0 -2.80 -4.05 -2.80 -8.35 0 -5.20 0.20 -5.65 2.30 -5.65 1.35 0 1.70 0.20 1.90 1.15 0.25 1.40 1.30 8.05 1.65 10.35 l0.25 1.75 3.95 -0.15 3.95 -0.20 0 1.85 c0 2.70 -1.45 3.70 -5.25 3.70 -1.90 0 -3.40 -0.30 -4.10 -0.80z"/>
  <path d="M118 269.45 c-2.05 -4.90 -2.60 -9 -2.35 -18.20 0.10 -4.65 0.40 -8.90 0.60 -9.35 0.25 -0.60 0.90 -0.90 2 -0.90 1.65 0 1.70 0 2 2.90 0.20 1.55 0.90 5 1.55 7.60 1.20 4.85 1.20 4.30 -0.10 -2.75 -0.95 -5.35 -0.95 -9.95 0.05 -10.75 0.40 -0.35 0.75 -1.35 0.75 -2.30 0 -0.90 0.25 -1.80 0.50 -1.95 0.30 -0.20 1.95 -0.20 3.65 0 l3.15 0.35 1.65 4.80 c0.95 2.70 2.25 6 2.90 7.45 1.65 3.70 1.50 4.80 -1.35 8.90 -1.35 2 -2.75 4.65 -3.10 5.95 -0.60 2.30 -0.60 2.30 -2.75 2.30 l-2.15 0 0 2.20 c0 1.25 -0.20 2.40 -0.50 2.55 -0.25 0.15 -0.85 1.05 -1.30 2 -0.70 1.45 -1.10 1.75 -2.45 1.75 -1.50 0 -1.70 -0.25 -2.75 -2.55z m5.95 -10.65 c-0.30 -1.30 -0.65 -2.25 -0.80 -2.15 -0.10 0.15 0.05 1.30 0.40 2.55 0.30 1.30 0.65 2.25 0.80 2.15 0.10 -0.15 -0.05 -1.30 -0.40 -2.55z"/>
  <path d="M160.10 268.20 c-0.90 -0.60 -1.10 -1.25 -1.10 -3.50 l0 -2.70 2.05 0 c1.10 0 2.50 0.25 3.05 0.55 0.55 0.30 2.50 0.70 4.35 0.85 l3.30 0.35 0.15 1.80 c0.15 1.80 0.10 1.85 -2.20 2.65 -3.10 1.05 -8.10 1.05 -9.60 0z"/>
  <path d="M322.50 265.55 c-1 -0.25 -1.30 -0.70 -1.40 -2.15 -0.10 -1.40 0.05 -1.85 0.75 -2.05 0.50 -0.15 1.95 -0.50 3.30 -0.85 2.95 -0.80 3.50 -1.50 1.15 -1.50 -1.75 0 -1.80 -0.05 -1.80 -1.85 0 -1 0.70 -3.25 1.50 -5 0.85 -1.75 1.80 -4.25 2.10 -5.55 0.80 -3.15 1.20 -3.60 3.35 -3.60 1.50 0 2 0.25 2.70 1.45 1.10 1.85 1.15 6.95 0.10 8.35 -1.10 1.45 -0.90 1.70 1 1.70 l1.75 0 0 2.75 c0 2.85 -0.85 7.60 -1.40 7.95 -0.70 0.40 -11.90 0.70 -13.10 0.35z"/>
  <path d="M308 264.75 c-0.50 -0.60 -0.80 -2.30 -0.90 -4.95 l-0.15 -4.05 2.05 -1.35 c1.35 -0.95 2.65 -1.40 3.95 -1.40 l1.95 0 0.80 3.25 c0.45 1.75 0.80 4.45 0.80 6 0 2.65 -0.05 2.75 -1.35 2.75 -0.80 0 -2.55 0.15 -3.90 0.30 -2.05 0.25 -2.65 0.15 -3.25 -0.55z"/>
  <path d="M319.30 254.90 c-0.15 -0.65 -0.30 -2.15 -0.30 -3.40 0 -1.95 0.20 -2.35 1.35 -2.85 0.75 -0.35 2.10 -0.65 3 -0.65 1.60 0 1.65 0.05 1.65 2.25 0 1.20 -0.40 3 -0.85 4 -0.75 1.55 -1.05 1.75 -2.70 1.75 -1.50 0 -1.90 -0.20 -2.15 -1.10z"/>
  <path d="M299.70 252.15 c0.15 -1.35 0.45 -3.90 0.60 -5.75 l0.30 -3.40 2.15 0 c2.95 0 4.25 1.75 4.25 5.60 0 2.95 -0.15 3.20 -2.20 4.80 -0.90 0.70 -2.15 1.10 -3.40 1.10 l-2 0 0.30 -2.35z"/>
  <path d="M136.15 245.15 c-0.85 -1.90 -1.40 -4.10 -1.55 -6.25 l-0.20 -3.40 2.15 0.05 c1.20 0 4 0.50 6.20 1.10 4.55 1.25 5.25 2.05 5.25 6 0 1.85 -0.15 2.35 -0.85 2.35 -0.45 0 -2 0.70 -3.50 1.50 -1.55 0.90 -3.35 1.50 -4.40 1.50 -1.70 0 -1.90 -0.15 -3.10 -2.85z"/>
  <path d="M307.25 235.15 c0.15 -1.35 0.45 -5.70 0.55 -9.75 l0.25 -7.40 2.30 0 c2.60 0 5.15 1.50 5.15 3.05 0 0.75 0.35 0.95 1.65 0.95 1.75 0 3.20 1.20 6 5.10 1.95 2.60 1.85 5.50 -0.20 8.30 l-1.55 2.10 -7.25 0 -7.25 0 0.35 -2.35z"/>
  <path d="M330 232.45 c0 -1.75 0.35 -3.15 1.05 -4.30 1 -1.55 1.30 -1.70 2.95 -1.55 1.65 0.15 1.85 0.05 1.45 -0.70 -0.25 -0.45 -0.45 -2.45 -0.45 -4.40 0 -2.95 0.20 -3.85 1.25 -5.40 0.70 -1 1.25 -2 1.25 -2.20 0 -0.25 -0.55 -0.40 -1.25 -0.40 -1.20 0 -1.25 -0.10 -1.25 -3.25 0 -1.80 0.20 -3.25 0.45 -3.25 0.25 0 0.55 -1.05 0.70 -2.35 0.55 -4.25 1.25 -7.35 2.45 -10.90 l1.15 -3.50 2.25 0 2.25 0 0.95 2.75 c1.35 3.95 1.65 10.10 0.60 11.75 -0.75 1.15 -0.75 1.25 0 1.25 0.75 0 0.80 0.55 0.55 4.65 -0.30 5.05 -1.45 9.15 -2.90 10.45 -0.50 0.45 -0.95 1.40 -0.95 2.10 0 0.75 -0.55 2.20 -1.25 3.30 -1.15 1.80 -1.50 2 -3.25 2 l-2 0 0 2.40 c0 3.05 -1 4.10 -3.90 4.10 l-2.10 0 0 -2.55z"/>
  <path d="M342 233.45 c0 -1 0.80 -2.80 2.05 -4.85 1.15 -1.80 2.70 -4.60 3.45 -6.20 0.75 -1.60 1.60 -3.20 1.90 -3.55 0.80 -1 1.15 -4.50 1.50 -14.50 0.35 -8.70 0.30 -9.35 -0.50 -9.35 -0.55 0 -0.90 -0.40 -0.90 -0.90 0 -0.50 -0.80 -2.50 -1.75 -4.55 -0.95 -2 -1.75 -4.40 -1.75 -5.35 0 -1.50 0.25 -1.85 1.75 -2.50 0.95 -0.35 2.90 -0.70 4.40 -0.70 2.15 0 2.85 0.20 3.65 1.15 1.80 2 2.70 3.80 2.70 5.35 0 1.15 0.25 1.50 0.95 1.50 1.90 0 4.80 8.45 5.60 16.25 1.20 11.75 -1.55 19.05 -9.30 24.75 -3.05 2.25 -9.65 5 -12.05 5 -1.55 0 -1.70 -0.10 -1.70 -1.55z"/>
  <path d="M147.65 233.90 c-0.90 -1.10 -1.65 -6.95 -1.65 -12.45 0 -5.35 0.90 -10.30 2.30 -13.10 2.40 -4.60 7 -8.35 10.30 -8.35 l1.95 0 -0.35 6.65 c-0.30 5.85 -0.50 6.80 -1.50 8.15 -2.60 3.40 -5.05 11.20 -5.35 16.95 l-0.10 2.50 -2.55 0.15 c-1.65 0.10 -2.70 -0.10 -3.05 -0.50z"/>
  <path d="M155 230 c0 -5.25 2.55 -12.50 5.80 -16.70 2.70 -3.40 7.05 -6.30 9.45 -6.30 1.65 0 1.75 0.10 1.75 1.55 0 1.20 -0.65 2.25 -2.90 4.70 -3.15 3.35 -7 10.20 -8.90 15.75 -1.05 3.25 -1.05 3.25 -3.15 3.40 l-2.05 0.15 0 -2.55z"/>
  <path d="M137.75 231.50 c-0.55 -0.25 -1.65 -0.45 -2.45 -0.45 l-1.45 -0.05 0.30 -5.35 c0.15 -3 0.65 -6.85 1.15 -8.65 1.70 -6.65 5.90 -14.10 10.85 -19.35 2.25 -2.40 2.70 -2.65 4.60 -2.65 2.35 0 2.75 0.55 2.75 3.90 0 1.35 -0.55 2.30 -2.70 4.65 -4.95 5.50 -7.15 11.75 -6.60 19.20 0.15 2.20 0.35 5.15 0.40 6.50 l0.15 2.50 -3 0.10 c-1.65 0.05 -3.45 -0.10 -4 -0.35z"/>
  <path d="M121.85 230.15 c-0.65 -0.60 -0.35 -3.50 0.35 -4.10 0.40 -0.35 1.80 -0.55 3.15 -0.45 l2.40 0.15 0.15 2.05 c0.15 1.95 0.05 2.10 -1.45 2.40 -2.05 0.40 -4.20 0.40 -4.60 -0.05z"/>
  <path d="M170.35 230.15 c-0.60 -0.55 -0.40 -5.40 0.25 -6.05 0.35 -0.35 1.80 -0.60 3.25 -0.60 l2.65 0 0 2 c0 1.10 -0.20 2 -0.50 2 -0.25 0 -0.80 0.70 -1.25 1.50 -0.60 1.20 -1.10 1.50 -2.45 1.50 -0.90 0 -1.80 -0.15 -1.95 -0.35z"/>
  <path d="M323.05 225.55 c-0.60 -0.80 -1.05 -2.05 -1.05 -2.75 0 -1.05 -0.25 -1.30 -1.25 -1.30 -1.70 0 -4.65 -2 -5 -3.35 -0.20 -0.90 -0.65 -1.15 -1.85 -1.15 -0.85 0 -2.45 -0.40 -3.50 -0.85 -1.75 -0.75 -1.90 -1 -1.90 -2.80 0 -1.35 0.45 -2.60 1.55 -4.15 0.80 -1.20 1.85 -3 2.25 -3.95 0.60 -1.45 0.95 -1.75 2.25 -1.75 l1.60 0 -0.35 -5.10 c-0.20 -2.85 -0.55 -7.05 -0.80 -9.40 -0.30 -2.35 -0.50 -5.45 -0.50 -6.85 l0 -2.65 1.70 0 c1.45 0 2.15 0.50 4.60 3.15 7.40 7.90 10.60 17.30 10.05 29.10 -0.25 5.60 -1.10 10.25 -1.90 10.25 -0.25 0 -0.45 0.70 -0.45 1.55 0 2.45 -0.80 3.45 -2.75 3.45 -1.30 0 -1.90 -0.35 -2.70 -1.45z"/>
  <path d="M293.60 218.40 c-1.35 -1.45 -2.10 -3.50 -2.10 -5.70 0 -1.65 0.10 -1.70 1.90 -1.75 l1.85 0 -2.05 -0.95 c-3.35 -1.50 -4.25 -3.05 -4.10 -7.20 l0.15 -3.55 2 -0.15 c1.95 -0.15 2.15 0 3.75 2.25 2.90 3.90 4 6.15 4 7.95 0 1.60 -0.10 1.70 -1.85 1.70 -1.75 0 -1.80 0 -0.90 1 0.55 0.60 1.55 1 2.60 1 l1.65 0 0 2.65 c0 1.45 -0.25 2.90 -0.60 3.25 -0.35 0.35 -1.65 0.60 -2.90 0.60 -1.75 0 -2.60 -0.25 -3.40 -1.10z"/>
  <path d="M303.35 206.15 c-0.15 -0.50 -0.75 -2.60 -1.35 -4.65 -0.60 -2.05 -1.85 -5.20 -2.80 -7 -2.15 -4.05 -2.25 -6.50 -0.40 -8.25 1.70 -1.55 5.50 -1.75 7.10 -0.35 1.20 1.05 2.10 3.65 2.10 6.15 0 1.10 0.25 1.95 0.50 1.95 0.70 0 0.60 6.10 -0.15 9.75 l-0.65 3 -2.05 0.15 c-1.60 0.10 -2.10 -0.05 -2.30 -0.75z"/>
  <path d="M126.75 195.40 c0.15 -4.20 0.40 -8.65 0.55 -9.85 l0.30 -2.20 6.80 0.25 c7.65 0.25 7.05 -0.45 -0.90 -1 l-4.75 -0.35 -0.15 -1.60 c-0.40 -4 4.05 -14.85 8.45 -20.75 1.85 -2.55 2.30 -2.90 3.85 -2.90 1.35 0 2.10 0.40 3.35 1.80 1.40 1.50 1.65 2.25 2 5.35 0.20 2 1.10 5.80 2.10 8.60 2.20 6.15 2.50 8.60 1.45 10.70 -0.70 1.30 -1.15 1.55 -2.70 1.60 -1 0 -1.55 0.15 -1.20 0.30 0.30 0.10 0.60 1 0.60 1.90 0 1.55 -0.35 1.95 -3.10 3.85 -1.75 1.15 -5.40 4.30 -8.10 7 -4.55 4.50 -5.15 4.90 -6.90 4.90 l-1.95 0 0.30 -7.60z"/>
  <path d="M332.30 193.85 c-0.45 -1.90 -5.55 -9.65 -8.65 -13.15 -1.60 -1.80 -5.10 -4.95 -7.75 -7 -2.70 -2.05 -5.10 -4.20 -5.40 -4.70 -0.25 -0.50 -0.50 -1.85 -0.50 -2.95 0 -1.95 0.05 -2.05 1.60 -2.05 1.90 0 11 4.50 16.80 8.40 2.25 1.50 5.90 4.60 8.10 6.95 3.50 3.70 4 4.45 4 6.05 0 1.05 -0.30 2.30 -0.65 2.85 -0.40 0.55 -1.20 2.30 -1.80 3.90 -1.15 2.85 -1.15 2.85 -3.30 2.85 -1.80 0 -2.20 -0.15 -2.45 -1.15z"/>
  <path d="M175.75 188.15 c-1.35 -0.40 -3.30 -0.90 -4.25 -1.10 -1.60 -0.30 -1.75 -0.45 -1.90 -2.30 -0.15 -1.85 0.10 -2.20 2.50 -4.60 3.85 -3.75 7.75 -6.15 9.95 -6.15 2.25 0 2.30 0.20 2.75 7.85 0.25 4.20 0.20 5.80 -0.30 6.40 -0.80 0.95 -5.25 0.90 -8.75 -0.10z"/>
  <path d="M290.85 185.40 c-0.40 -0.65 -2.20 -2.95 -4.05 -5.15 -2.80 -3.35 -3.30 -4.25 -3.30 -5.85 l0 -1.90 3.50 0 c4.60 0 7.40 1.10 8.30 3.30 0.75 1.75 0.95 6.45 0.40 9.15 -0.30 1.40 -0.50 1.55 -2.20 1.55 -1.40 0 -2.10 -0.30 -2.65 -1.10z"/>
  <path d="M275.50 184.55 c0 -0.25 -1.50 -2 -3.35 -3.90 -2.70 -2.70 -4.20 -3.80 -7.25 -5.10 l-3.90 -1.70 0 -1.95 c0 -1.75 0.20 -2 1.75 -2.70 2.20 -0.90 7.40 -0.90 9.20 0 1.85 0.95 4.75 4.25 6.10 6.90 0.70 1.30 1.20 3.45 1.35 5.55 l0.25 3.35 -2.10 0 c-1.10 0 -2.05 -0.20 -2.05 -0.45z"/>
  <path d="M339.80 178.10 c-6.55 -7.35 -19.30 -15.55 -30.15 -19.40 l-2.65 -0.95 0 -2.85 0 -2.90 2 0 c2.30 0 7.30 1.90 15.95 6.10 7 3.40 10.85 5.75 17.30 10.65 6.90 5.20 8.25 6.65 8.25 8.75 0 1.55 -0.25 1.90 -2.10 2.90 -1.20 0.60 -2.95 1.10 -3.90 1.10 -1.50 -0.05 -2.15 -0.50 -4.70 -3.40z"/>
  <path d="M165.40 179.45 c-1.60 -1.30 -1.90 -1.85 -1.90 -3.50 0 -1.90 0.05 -1.95 3.60 -3.75 4.35 -2.20 11.70 -4.65 15 -5.05 l2.40 -0.30 0 1.85 c0 1 -0.20 1.80 -0.50 1.80 -0.25 0 -0.50 0.35 -0.50 0.75 0 0.40 -0.25 0.75 -0.60 0.75 -1.20 0 -8.25 4.55 -10.40 6.75 -2.70 2.75 -4.35 2.95 -7.10 0.70z"/>
  <path d="M150 173.90 c-0.85 -2.40 -1.20 -4.70 -1.35 -9.60 -0.35 -7.85 0.25 -10.70 2.85 -14.70 2.35 -3.65 5 -5.60 7.60 -5.60 l1.90 0 0 2.25 c0 1.30 -0.35 2.95 -0.75 3.75 -2.20 4.25 -3.25 10.20 -3.25 18.55 0 6.05 0 6.20 -1.35 7.30 -0.75 0.70 -1.95 1.15 -2.95 1.15 -1.55 0 -1.65 -0.15 -2.70 -3.10z"/>
  <path d="M161.65 162.90 c0.35 -7.45 1.20 -10.85 4 -15.85 2.10 -3.70 2.20 -3.80 4.25 -3.95 2.05 -0.15 2.10 -0.10 2.10 1.35 0 1.30 0.20 1.50 1.65 1.65 l1.60 0.15 0.05 5.25 c0.05 2.90 0.30 5.80 0.55 6.50 0.40 0.95 0.45 0.30 0.25 -2.60 -0.10 -2.10 -0.05 -5.50 0.15 -7.60 l0.35 -3.80 2.55 0 c1.45 0 3.75 0.30 5.10 0.65 3 0.80 3.20 1.35 2 6.50 -0.60 2.55 -0.70 4.60 -0.50 7.15 0.25 2.40 0.20 3.70 -0.20 3.90 -0.30 0.20 -2.10 0.50 -4.05 0.65 -3.35 0.30 -3.50 0.25 -3.95 -0.90 -0.45 -1.10 -0.50 -1.05 -0.50 0.60 -0.05 1.75 -0.10 1.75 -3.65 2.90 -1.95 0.65 -4.50 1.70 -5.70 2.35 -1.30 0.75 -2.95 1.20 -4.25 1.20 l-2.10 0 0.30 -6.10z"/>
  <path d="M202 163.30 c0 -4.75 0.55 -5.80 2.95 -5.80 2.30 0 3.55 1.45 3.55 4.15 0 2.25 -2.60 4.85 -4.90 4.85 l-1.60 0 0 -3.20z"/>
  <path d="M187.50 160.55 c-0.55 -1.05 -0.70 -3.70 -0.25 -4.15 0.20 -0.15 0.40 -1.85 0.45 -3.70 0.10 -1.90 0.35 -3.85 0.55 -4.30 0.60 -1.50 4.25 -1.15 7.85 0.65 l3.05 1.55 -0.30 3.80 c-0.20 2.15 -0.45 4.60 -0.65 5.50 l-0.30 1.60 -4.95 0 c-4.35 0 -4.95 -0.10 -5.45 -0.95z"/>
  <path d="M249.05 156.50 c-0.95 -0.25 -3.50 -0.55 -5.65 -0.75 -3.65 -0.35 -3.90 -0.45 -3.90 -1.50 0 -1.15 -0.05 -1.15 -4.70 -0.90 l-4.70 0.30 -1.05 -2.45 c-0.70 -1.50 -1.05 -3.20 -0.95 -4.35 0.15 -1.80 0.30 -2 2.50 -2.85 2.15 -0.80 6.80 -2.05 13 -3.45 1.30 -0.30 4.05 -0.55 6.10 -0.55 l3.75 0 2 4.05 c1.15 2.25 2.05 4.70 2.05 5.50 0 0.85 0.30 1.60 0.75 1.75 0.55 0.25 0.75 1.05 0.75 3 l0 2.70 -4.10 -0.05 c-2.30 -0.05 -4.90 -0.25 -5.85 -0.45z"/>
  <path d="M217.50 154.15 c0 -1.55 0.30 -2.15 1.70 -3.25 2.15 -1.75 5 -1.90 5.80 -0.40 0.30 0.60 0.50 2 0.40 3.15 l-0.15 2.10 -3.85 0.15 -3.90 0.15 0 -1.90z"/>
  <path d="M266.25 153.65 c-0.15 -0.80 -0.75 -3.20 -1.35 -5.40 -0.60 -2.20 -1.15 -5.10 -1.30 -6.45 l-0.20 -2.40 5.65 0.35 c7.40 0.45 7.65 0.60 7.25 3.95 -0.15 1.40 -0.30 3.90 -0.30 5.55 l0 3.05 -2.95 1.35 c-1.60 0.75 -3.75 1.35 -4.75 1.35 -1.55 0 -1.80 -0.20 -2.05 -1.35z"/>
  <path d="M204.20 146.15 c0.15 -1.60 0.45 -4.75 0.60 -7 l0.35 -4.15 2.05 0 c1.40 0 3.05 0.55 5.05 1.70 2.90 1.60 3 1.70 3.15 3.85 0.15 2.10 0.05 2.30 -2.25 4.05 -1.30 1 -2.95 2.40 -3.60 3.10 -0.95 1 -1.70 1.30 -3.45 1.30 l-2.20 0 0.30 -2.85z"/>
  <path d="M195.15 144.90 c-1.40 -0.95 -1.65 -1.45 -1.65 -3.15 0 -1.70 0.30 -2.35 1.90 -3.90 1.40 -1.35 2.30 -1.85 3.50 -1.85 1.50 0 1.60 0.10 1.60 1.95 0 1.05 -0.15 3.30 -0.30 5 -0.35 3 -0.35 3.05 -1.90 3.05 -0.85 0 -2.30 -0.50 -3.15 -1.10z"/>
  <path d="M224.30 142.95 c-0.45 -0.65 -0.80 -2.05 -0.80 -3.10 l0 -1.90 4.65 -2.20 c5.35 -2.50 11.85 -4.25 15.85 -4.25 2.45 0 3 0.20 4.15 1.40 0.95 1 1.35 1.95 1.35 3.25 0 2.10 0.20 2 -5.20 2.85 -2.20 0.30 -6.45 1.50 -9.50 2.60 -7.25 2.60 -9.40 2.90 -10.50 1.35z"/>
  <path d="M185 139.25 c-2.65 -1.10 -2.75 -1.20 -2.75 -3.05 0 -1.90 0.05 -1.95 2.75 -2.85 1.50 -0.50 4.70 -1.05 7.15 -1.20 l4.35 -0.30 0 1.90 c0 1.60 -0.40 2.30 -2.35 4.35 -2.10 2.10 -2.65 2.40 -4.40 2.35 -1.10 0 -3.25 -0.55 -4.75 -1.20z"/>
  <path d="M217.50 135.95 c-0.95 -0.80 -3.40 -2.30 -5.35 -3.35 -3.55 -1.80 -3.65 -1.90 -3.65 -3.70 0 -1.85 0.05 -1.90 4.40 -4.10 6.10 -3.05 9.70 -3.95 15.60 -3.70 4.70 0.15 4.80 0.20 8.90 2.65 l4.10 2.50 0 2.10 c0 2.10 -0.05 2.15 -1.75 2.15 -2.25 0 -8.85 2.40 -13.60 5 -4.50 2.45 -6.25 2.50 -8.65 0.45z"/>
  <path d="M260.50 136.50 c-0.60 -0.60 -1 -1.65 -1 -2.75 0 -1.70 0.05 -1.75 2 -1.75 1.10 0 3.65 0.35 5.75 0.85 l3.75 0.80 0 1.95 0 1.90 -4.75 0 c-4.10 0 -4.90 -0.15 -5.75 -1z"/>
  <path d="M292 134.80 c-0.40 -0.40 -2.75 -1.80 -5.25 -3.05 -5.10 -2.65 -5.75 -3.25 -5.75 -5.60 0 -1.10 -0.25 -1.65 -0.75 -1.65 -0.40 0 -1.60 -1.20 -2.70 -2.60 -1.05 -1.45 -3.45 -4.10 -5.25 -5.90 -1.80 -1.75 -3.30 -3.60 -3.30 -4.10 0 -0.60 -0.40 -0.90 -1.20 -0.90 -2.25 0 -2.80 -0.50 -2.80 -2.55 l0 -1.95 2.20 0 c1.30 0 2.55 0.30 3 0.75 0.40 0.40 1.25 0.75 1.95 0.75 2.75 0 14.85 5 16.85 7 0.50 0.50 1.35 1.05 1.95 1.25 1.15 0.35 7.05 6.10 9.10 8.95 2.25 3 2.05 5.40 -0.65 8.15 -1.90 1.90 -2.35 2.15 -4.40 2.15 -1.30 0 -2.60 -0.30 -3 -0.70z"/>
  <path d="M273.15 133.40 c-0.90 -0.45 -1.15 -1 -1.15 -2.50 l0 -1.90 2.20 0 c1.25 0 2.85 0.20 3.55 0.50 1.15 0.45 1.30 0.75 1.15 2.35 -0.15 1.85 -0.20 1.90 -2.40 2 -1.25 0.05 -2.75 -0.15 -3.35 -0.45z"/>
  <path d="M253.35 127.60 c-0.75 -0.80 -1.35 -2 -1.35 -2.70 0 -1.25 -0.80 -1.90 -2.35 -1.90 -0.45 0 -2.60 -1.15 -4.80 -2.55 -5.70 -3.65 -11.20 -6.15 -18.50 -8.30 l-6.35 -1.90 0 -1.75 0 -1.80 3.65 -0.65 c6.55 -1.15 15.65 -1.30 21.15 -0.30 11.20 2 19.25 6.15 26.10 13.45 2.75 2.95 3.10 3.60 3.10 5.35 l0 1.95 -5.50 -0.30 c-5.40 -0.35 -5.50 -0.35 -5.50 0.75 0 1.40 -1.70 2.05 -5.45 2.05 -2.50 0 -3.05 -0.20 -4.20 -1.40z"/>
  <path d="M186 126.20 c0 -2.05 -0.15 -1.90 5.80 -6 3.30 -2.25 4.35 -2.75 5.75 -2.60 1.65 0.15 1.70 0.25 2.10 2.90 0.20 1.50 0.30 3.75 0.25 5 l-0.15 2.25 -6.85 0.15 -6.90 0.15 0 -1.85z"/>
  <path d="M204.35 126.15 c-0.15 -0.25 -0.30 -2.55 -0.40 -5.15 l-0.20 -4.75 4.25 -0.15 c2.35 -0.05 5.95 0.05 8 0.25 l3.75 0.40 0.15 1.80 c0.15 1.75 0.05 1.85 -2 2.65 -1.20 0.50 -3.90 1.85 -6 3.10 -3.65 2.05 -6.95 2.85 -7.55 1.85z"/>
 </g>
 <g fill="#ffffff">
  <path d="M182.50 447 c0 -0.25 0.45 -0.50 0.95 -0.50 1.50 0 4.05 -2.90 5.90 -6.75 4.10 -8.70 7.30 -24.60 9.40 -47 0.85 -9.35 0.90 -11.25 0.30 -11.25 -0.30 0 -1.45 1.25 -2.65 2.80 -7.85 10.15 -10.25 13.25 -15.60 19.70 -7.25 8.80 -15.15 16.65 -19 18.95 -1.55 0.95 -2.90 1.60 -3.05 1.50 -0.10 -0.15 1.95 -2.45 4.60 -5.20 4.80 -5.05 13.40 -14.90 18.95 -21.75 3.40 -4.25 5.90 -7.40 12.90 -16.70 l4.85 -6.45 0.40 -10.55 c0.20 -5.80 0.30 -10.65 0.15 -10.80 -0.10 -0.15 -0.55 0.30 -1 0.95 -0.45 0.65 -3.05 4 -5.75 7.50 -2.70 3.45 -5.55 7.10 -6.25 8.05 -1.80 2.40 -13.75 16.70 -16.25 19.50 -13.30 14.85 -24.95 25.20 -32.35 28.80 -4.30 2.10 -6.50 1.40 -6.50 -2.05 0 -4.55 8.15 -21.55 12.10 -25.25 0.60 -0.55 1.15 -0.90 1.25 -0.80 0.15 0.10 -0.45 1.55 -1.30 3.25 -5.10 10 -6.65 17.55 -3.65 17.55 4 0 23.30 -19.10 40.10 -39.70 12.10 -14.75 18.15 -22.40 19.60 -24.70 l0.90 -1.45 -5.25 -1.35 c-3.10 -0.85 -5.50 -1.20 -5.95 -0.95 -1.80 1 -3.70 4.25 -4.75 8.25 -1.45 5.20 -5.10 13.05 -8.80 18.75 -3.25 5 -4.65 6.65 -5.60 6.65 -1.55 0 -1.05 -1.60 1.80 -5.55 1.65 -2.30 4.35 -6.90 6 -10.20 4.90 -9.85 4.50 -11.25 -1.15 -4.05 -6.45 8.25 -11.50 11.85 -15.10 10.85 -1 -0.30 -2.35 -1 -3 -1.60 -2 -1.85 -1.35 -3.45 0.95 -2.40 3.15 1.45 8.10 -1.65 16.55 -10.25 6.50 -6.65 7.15 -7.55 7.55 -10.65 0.40 -3.20 0 -3.30 -4.15 -1.35 -3.95 1.85 -9.90 2.85 -15.30 2.50 l-4.45 -0.30 -3.30 3.15 c-4.80 4.50 -7.85 5.60 -15.80 5.60 l-6 0 -4.45 -2.15 c-10.20 -4.90 -16.30 -15.05 -17 -28.15 -0.55 -10.20 3.70 -19.80 11.20 -25.10 3.30 -2.30 3.30 -2.25 1.60 -6.75 -0.75 -2.10 -1.60 -3.20 -3.65 -4.85 -7.05 -5.60 -15.20 -14.85 -17.90 -20.15 -3.35 -6.60 -3.95 -13.20 -1.85 -19.15 2.10 -6.05 8.15 -14.10 13.20 -17.55 1.25 -0.85 2.10 -1.85 2.10 -2.45 0 -1.45 1.95 -8.40 3 -10.85 0.90 -1.95 0.90 -2.70 0.45 -9.25 -0.50 -6.45 -0.30 -15.75 0.35 -17.95 0.40 -1.35 -1.60 -1.15 -5.85 0.60 -7.50 3.05 -12.90 7.80 -14.70 12.95 -1.20 3.55 -1.15 3.70 3 5 4.35 1.35 9 4.20 10.75 6.60 0.90 1.25 1.25 2.50 1.40 4.75 0.20 2.95 0.15 3.20 -1.55 5 -1.65 1.80 -1.90 1.90 -4.55 1.90 -2.40 -0.05 -3.20 -0.35 -6.05 -2.20 -2.55 -1.65 -3.90 -2.20 -5.90 -2.35 -4.75 -0.40 -7.80 -2.05 -9.35 -5.15 -2.25 -4.45 -0.25 -8.45 4.85 -9.60 1.95 -0.45 2.65 -0.85 2.65 -1.50 0 -2.15 2.70 -7.90 4.90 -10.40 3.85 -4.40 13.05 -9.60 19.10 -10.85 1.90 -0.35 2.15 -0.75 3.25 -4.90 1.95 -7.80 5.90 -15.95 10.20 -21.20 l1.80 -2.20 -2.55 -2.30 c-3.45 -3.15 -11.50 -9.20 -15.60 -11.65 -1.85 -1.10 -3.45 -2.10 -3.55 -2.20 -1.30 -1.15 6.05 0.35 12.35 2.50 4.15 1.45 10.05 4.55 12.60 6.70 l1.75 1.50 3.05 -2.20 c1.65 -1.20 4.80 -3 7 -4 7.65 -3.45 10.20 -4.85 10.20 -5.45 0 -0.95 -8.15 -9.40 -12.20 -12.70 -4.15 -3.40 -11.25 -8.15 -15.65 -10.60 -1.75 -0.90 -3.15 -1.85 -3.15 -2.05 0 -0.60 0.15 -0.55 6.70 1.65 7.45 2.50 14.20 5.65 18.95 8.80 4.15 2.75 9.90 8 11.40 10.45 0.55 0.95 1.25 1.70 1.55 1.70 0.55 0 4.85 -4.55 4.90 -5.15 0 -0.20 -1.20 -1.90 -2.70 -3.75 -3.85 -4.85 -13.75 -14.20 -19.95 -18.85 -2.90 -2.20 -5.30 -4.15 -5.35 -4.30 -0.05 -1.05 13.30 4.80 18.65 8.15 3.75 2.30 11.10 8.05 11.45 8.90 0.10 0.20 1 1.30 2.05 2.45 l1.90 2.10 2.55 -2.30 c8.60 -7.70 25.35 -16.25 38.40 -19.50 13.50 -3.40 30.70 -3.60 45 -0.45 3.15 0.70 6 1.35 6.35 1.45 0.90 0.30 6.30 -7.65 9.20 -13.50 4.90 -9.85 4.05 -16.25 -2.55 -19.65 -2.75 -1.35 -8.20 -1.50 -12.40 -0.30 -7.85 2.25 -17.80 8.65 -21.05 13.55 -2.15 3.25 -2.20 6.45 -0.05 8.55 2.30 2.30 6.70 2.70 9.20 0.85 0.70 -0.50 0.95 -1.40 1 -3.05 0.05 -1.85 -0.20 -2.45 -1.15 -3.25 -1.20 -1 -1.20 -1 -2.55 0.30 -1.50 1.45 -2.40 1.55 -3.80 0.50 -0.95 -0.75 -0.95 -0.75 0.20 -1.70 2.85 -2.45 9.85 -2.40 11.15 0.05 0.80 1.50 -0.20 4.60 -2.35 7.25 -3.15 3.85 -8.15 4.60 -12.30 1.90 -5.15 -3.40 -4.60 -10.55 1.20 -16.05 8.15 -7.75 20.65 -13.15 29.10 -12.60 4.60 0.30 9.15 2.60 11.20 5.65 1.40 2.15 1.60 2.85 1.60 5.85 0 5.60 -2.85 12.55 -8.95 21.80 -1.70 2.55 -2.95 4.85 -2.80 5.05 0.15 0.25 0.85 0.60 1.55 0.75 1.70 0.45 8.40 3.60 10.80 5.10 1.10 0.70 2 1 2.15 0.70 0.15 -0.30 0.70 -0.50 1.15 -0.50 0.75 0 0.75 0.10 0.10 0.50 -0.60 0.45 -0.30 0.90 1.75 2.60 1.40 1.15 3.45 3.10 4.60 4.25 1.20 1.20 2.35 2.15 2.55 2.15 0.90 0 5.15 -6.05 7 -9.85 1.75 -3.65 1.85 -4.20 1.85 -8.65 0 -4.10 -0.15 -5 -1.15 -6.60 -1.50 -2.40 -3.25 -3.75 -5.70 -4.45 -1.60 -0.40 -1.95 -0.70 -1.80 -1.60 0.10 -0.90 0.45 -1.05 1.60 -0.95 4 0.45 8.40 4.50 9.25 8.70 1.65 7.60 -0.55 15 -6.70 22.55 -1.25 1.55 -2.25 3.10 -2.25 3.50 0 0.35 0.50 1.15 1.15 1.70 l1.10 1.05 7.15 -5.30 c6.40 -4.80 7.30 -5.65 8.90 -8.55 2.55 -4.60 4.75 -11.60 5.05 -16.20 0.15 -2.10 0.55 -4.25 0.90 -4.70 0.95 -1.30 2.25 -0.45 2.25 1.45 0 2.95 -1.40 9.55 -2.90 13.80 -0.80 2.25 -1.35 4.20 -1.15 4.30 0.15 0.10 3.25 -1.95 6.85 -4.60 3.65 -2.70 8.75 -6.40 11.45 -8.35 2.65 -1.90 8.65 -6.35 13.30 -9.85 8.95 -6.70 11.25 -7.40 4.35 -1.35 -2.30 2 -8.20 7.25 -13.10 11.65 -4.95 4.45 -13.75 12.30 -19.50 17.50 -5.80 5.15 -12.70 11.35 -15.40 13.75 -4.80 4.30 -4.80 4.30 -4.55 6.30 0.15 1.10 0.50 2.40 0.70 2.85 0.25 0.45 0.45 2.40 0.45 4.35 0 1.95 0.15 3.55 0.30 3.55 0.30 0 8.65 -4.65 11.95 -6.65 1.50 -0.90 12.75 -6.45 16.50 -8.15 1.10 -0.50 2.15 -1 2.40 -1.10 0.20 -0.10 0.35 0 0.35 0.25 0 0.45 -8.60 7.30 -18 14.40 -2.90 2.20 -5.35 4.05 -5.50 4.15 -0.35 0.25 1.05 1 5.25 2.95 l3.50 1.60 5.50 -2.65 c3.05 -1.45 6.35 -2.95 7.35 -3.25 1 -0.35 2.70 -1.55 3.75 -2.70 2.80 -3 5.75 -5.35 6.75 -5.35 1.60 0 0.95 1.35 -1.60 3.30 -1.35 1.05 -2.50 2.10 -2.50 2.30 0 0.40 3.35 0.10 4.90 -0.40 0.40 -0.10 2.15 0.05 3.95 0.30 2.90 0.50 3.40 0.45 4.30 -0.35 1.50 -1.35 4.85 -8.60 4.85 -10.50 0 -2.05 -1.60 -2.65 -4 -1.40 -1.35 0.70 -1.70 0.75 -2.05 0.15 -0.70 -1.10 -0.55 -1.30 1.85 -2.40 3.30 -1.45 4.90 -1.30 6.20 0.50 1 1.40 1 1.55 0.20 4.30 -1.05 3.75 -2.10 5.95 -4.10 8.80 -1.90 2.75 -1.90 2.95 -0.55 3.80 1.25 0.80 3.65 5.85 3.25 6.90 -0.55 1.40 -2.50 0.60 -2.80 -1.10 -0.35 -1.65 -2.40 -4.70 -3.15 -4.70 -0.25 0 -2.25 1.65 -4.40 3.70 -3.45 3.25 -9.95 8.10 -12.05 8.95 -0.45 0.20 0.15 1 1.85 2.45 8.70 7.60 10.90 9.65 14.10 13.65 1.95 2.45 3.85 4.55 4.15 4.65 0.30 0.10 1.05 -0.25 1.65 -0.80 1.75 -1.65 6.80 -4.10 8.40 -4.10 2.80 0 4.80 1.25 6.10 3.85 0.65 1.30 1.35 3.05 1.55 3.90 l0.40 1.50 1.05 -1.50 c0.60 -0.85 2.10 -2.55 3.40 -3.85 1.30 -1.30 2.45 -2.55 2.55 -2.80 0.25 -0.70 5.60 0.15 7.10 1.15 1.60 1.05 4.30 4.80 4.30 5.95 0 1.60 -1.95 0.85 -2.95 -1.10 -1.15 -2.25 -4.50 -4.35 -6.30 -3.90 -0.70 0.20 -1.45 0.95 -1.85 1.90 -1.85 4.40 -5.10 10.80 -6.05 11.80 -0.55 0.60 -0.75 1.10 -0.45 1.10 1 0 0.75 11.05 -0.40 17.30 -1.95 10.60 -4 15.30 -9.70 22.50 -3.45 4.40 -10.40 10 -15.55 12.60 -3.35 1.65 -9.20 3.60 -11 3.60 -2.70 0 -2.75 0.15 -2.75 6.60 l0 6.05 12.90 -0.35 c7.05 -0.20 16.25 -0.55 20.35 -0.80 12.55 -0.75 20.95 -1.40 22 -1.70 0.55 -0.10 2.40 -0.50 4.15 -0.85 3.60 -0.70 4.35 -1.95 1.15 -1.95 -1.15 0 -2.20 -0.30 -2.60 -0.80 -0.60 -0.70 -0.45 -1 0.80 -2 2.40 -1.95 4.95 -2.50 7.40 -1.65 2.50 0.90 4.10 2.90 3.65 4.60 -0.45 1.90 -2.55 4.10 -4.90 5.25 -5 2.30 -18.45 3.85 -40.15 4.60 -8.25 0.30 -17.55 0.70 -20.70 0.90 -5.65 0.35 -5.75 0.35 -6.10 1.65 -0.15 0.75 -1.35 3.35 -2.60 5.85 -1.25 2.55 -2.15 4.65 -1.95 4.80 0.20 0.10 2.60 0.65 5.35 1.25 13.80 2.85 26.05 3.80 42.75 3.35 17.40 -0.45 30.50 -1.85 43.65 -4.75 3.50 -0.75 6.35 -1.20 6.35 -1 0 0.45 -8.30 3.70 -14.25 5.60 -10.90 3.55 -27.90 6.85 -35.10 6.85 -2.55 0 -2.65 0.05 -3.60 1.90 -1.20 2.30 -2.65 3.65 -5.55 5.15 -1.85 0.95 -3.05 1.15 -7 1.15 -2.60 0 -6 -0.30 -7.50 -0.65 -4.05 -1 -12.65 -4.35 -17.55 -6.80 -2.40 -1.20 -4.45 -2.05 -4.65 -1.90 -0.15 0.15 0.15 0.90 0.65 1.60 1.60 2.30 3.45 7.70 4.60 13.25 0.90 4.55 0.95 5.50 0.40 5.85 -1.80 1.10 -2.10 0.60 -2.65 -4.20 -0.70 -6.10 -4.25 -14.50 -7.70 -18.20 -2.90 -3.10 -3.55 -3.10 -7.20 -0.25 -1.75 1.35 -3.90 2.85 -4.75 3.30 -0.90 0.45 -1.65 1 -1.65 1.25 0 0.40 1.95 2.80 20.10 24.40 4.90 5.85 8.90 10.80 8.90 11 0 0.20 -0.60 0.80 -1.30 1.30 l-1.25 0.95 -1.80 -2.05 c-0.95 -1.15 -5.50 -6.30 -10.05 -11.45 -4.60 -5.15 -10.45 -11.80 -13.05 -14.75 -2.60 -2.95 -5 -5.35 -5.30 -5.35 -0.60 0 -2.75 2.05 -2.75 2.60 0 1.05 -8.25 12.90 -9.50 13.65 -0.75 0.45 0.35 1.75 1.50 1.75 0.45 0 2.50 0.80 4.50 1.80 4.45 2.25 9.80 7.30 11.75 11.15 2.45 4.90 1.25 11.15 -3.05 15.80 -2.55 2.75 -2.70 1.50 -0.35 -2.30 1.75 -2.90 1.90 -3.35 1.90 -7.15 0 -3.55 -0.15 -4.35 -1.40 -6.40 -2.70 -4.55 -8.05 -8.55 -13.85 -10.40 l-3.50 -1.15 -2.65 2.45 c-1.40 1.35 -3.40 3.10 -4.35 3.85 l-1.75 1.35 1.65 2.85 c5.45 9.55 7.45 15.70 6.90 21.55 -0.65 7.40 -4.85 12.40 -12.55 14.95 -3.45 1.10 -4.85 1.30 -10.10 1.30 -3.45 0 -7.10 -0.30 -8.40 -0.65 -1.25 -0.35 -2.35 -0.55 -2.50 -0.40 -0.10 0.10 0.15 2.10 0.60 4.40 1.20 6.15 1.15 21.25 -0.05 27.25 -1.55 7.95 -5.25 15.40 -9.80 19.70 -4.05 3.85 -11.80 7.45 -17.75 8.30 -3.35 0.45 -2.65 -0.10 2.10 -1.70 8.65 -2.85 15.30 -8.60 19.30 -16.55 3.45 -6.90 4.10 -10.25 4.10 -22.25 0 -7.75 -0.20 -11.15 -0.95 -15.20 l-0.95 -5.15 -3.05 -1.30 c-1.70 -0.70 -5.10 -2.35 -7.65 -3.65 l-4.60 -2.30 -2.20 2.15 c-3.55 3.50 -8.50 4.30 -17.70 2.90 -1.85 -0.30 -6 -3 -9 -5.85 -1.20 -1.10 -2.20 -1.95 -2.35 -1.80 -0.10 0.10 -2.85 4.05 -6.05 8.70 -3.25 4.70 -6.75 9.60 -7.80 10.95 l-1.95 2.45 0 9 c0 4.95 -0.20 10.35 -0.50 12.05 -0.25 1.65 -0.70 5.10 -1.05 7.55 -0.90 7.05 -3.80 21.95 -5.50 27.90 -2.50 8.85 -4.35 12.40 -7.65 14.40 -1.65 1 -5.30 1.30 -5.30 0.45z m24.25 -82.05 c1.40 -1.95 3.30 -4.70 4.30 -6.20 0.95 -1.45 2.60 -3.80 3.60 -5.20 1 -1.40 1.85 -2.80 1.85 -3.05 0 -0.30 -0.50 -1.25 -1.10 -2.15 -0.65 -0.90 -1.15 -1.65 -1.20 -1.70 0 -0.10 -1.80 -0.40 -3.95 -0.70 -3.65 -0.50 -3.95 -0.45 -4.90 0.50 -0.90 0.90 -1 1.55 -0.90 7 0.05 3.55 -0.10 6.05 -0.35 6.05 -0.25 0 -0.50 2.05 -0.55 4.50 -0.05 2.50 0.10 4.50 0.30 4.50 0.20 0 1.55 -1.60 2.90 -3.55z m81.30 -3.15 c5.85 -1.25 8.55 -3.15 10.40 -7.30 2.80 -6.40 1.45 -13.80 -4.30 -23.60 -1.25 -2.15 -2.35 -3.90 -2.40 -3.90 -0.10 0 -0.80 0.25 -1.50 0.60 -0.90 0.40 -1.25 0.95 -1.25 2 0 1.40 -0.85 1.85 -1.80 0.90 -0.35 -0.35 -1.45 0.15 -3.40 1.55 -3.05 2.20 -10.45 5.80 -14.55 7.10 -1.35 0.45 -4.05 1.05 -6 1.40 -1.90 0.30 -3.70 0.75 -3.90 0.95 -0.25 0.20 0.10 1.25 0.80 2.30 2.25 3.60 6.35 13.35 6.35 15.20 0 1.50 0.90 2.05 4.30 2.70 4.55 0.95 13.15 0.95 17.25 0.10z m-24.90 -3.10 c0.30 -0.30 -2.05 -6.15 -3.75 -9.10 -3.25 -5.85 -4.60 -7.65 -5.60 -7.50 -0.90 0.15 -1.15 0.70 -1.60 3.90 -0.35 2.05 -0.75 4.55 -0.95 5.50 -0.35 1.75 -0.30 1.80 2.35 3.25 3.90 2.15 8.05 4.15 8.70 4.20 0.30 0.05 0.65 -0.10 0.85 -0.25z m-19.25 -2.20 c1.15 -0.85 2.10 -1.80 2.10 -2.15 0 -0.35 -0.65 -1.05 -1.50 -1.50 -1.45 -0.90 -1.45 -0.85 -2.30 0.50 -0.45 0.75 -1.25 2 -1.75 2.75 -1.20 1.75 -1.20 1.90 0.20 1.90 0.65 0 2.15 -0.70 3.25 -1.50z m4.40 -7.35 c0.15 -1.05 0.50 -2.80 0.75 -3.90 0.45 -2.25 0.30 -2.55 -1.65 -3 -1.25 -0.30 -1.35 -0.20 -2.10 2.40 -1.05 3.55 -1 3.80 0.35 5.10 1.60 1.65 2.25 1.50 2.65 -0.60z m-101.20 -0.70 c3 -0.65 7.10 -2.80 8.85 -4.65 l1.20 -1.25 -1.35 -0.55 c-0.75 -0.25 -1.55 -0.50 -1.80 -0.50 -0.25 0 -1.75 -0.55 -3.35 -1.25 l-2.85 -1.30 -2 1.45 c-1.15 0.80 -3.15 1.85 -4.45 2.30 -8.25 2.80 -13.60 -2.05 -17.10 -15.45 -1.80 -6.75 -2 -8.90 -1 -9.75 1.20 -1 1.55 -0.25 2.50 4.75 0.95 5.35 2.85 10.70 4.80 13.60 1.95 2.85 4.25 4.15 7.25 4.15 2.45 0 6.70 -1.55 6.70 -2.40 0 -0.25 -0.90 -1.10 -2.05 -1.80 -5.80 -3.85 -14.95 -14.70 -15.75 -18.70 -0.25 -1.20 -0.10 -1.60 0.70 -2.05 1.65 -0.90 1.90 -0.70 3.60 2.35 3.35 5.95 10.90 13.80 15.80 16.40 l1.80 0.95 3.45 -3.75 c1.90 -2.05 3.45 -3.85 3.45 -4 0 -0.15 -1.55 -1.25 -3.35 -2.50 -7.15 -4.80 -15.65 -14.70 -20.15 -23.35 -1.15 -2.30 -2.30 -4.15 -2.50 -4.15 -0.95 0 -7.45 6.95 -8.90 9.55 -2.50 4.45 -3.25 8.20 -2.95 15.20 0.20 4.80 0.50 6.75 1.55 9.75 4.45 12.65 15.70 19.50 27.90 16.95z m64.90 -7.20 c0 -0.80 -2.25 -1.05 -2.70 -0.30 -0.40 0.60 0.20 1.05 1.55 1.05 0.70 0 1.15 -0.30 1.15 -0.75z m-10.60 -6.35 c0.05 -2.70 -0.05 -4.90 -0.30 -4.90 -0.55 0 -6.50 7.10 -6.70 8 -0.15 0.75 3.60 1.95 5.60 1.85 1.25 -0.10 1.25 -0.15 1.40 -4.95z m-24.25 3.10 c1.85 -0.90 1.70 -1.35 -0.75 -2 -6.20 -1.65 -8.10 -2.35 -13.10 -4.90 l-5.45 -2.75 -1.55 1.70 c-0.85 1 -2.30 2.60 -3.15 3.60 -0.90 1 -1.65 2.05 -1.65 2.30 0 0.55 2.25 1.25 7.50 2.35 4.10 0.85 16.10 0.65 18.15 -0.30z m18.25 -5.70 c4.60 -5.45 4.60 -5.50 0.35 -5.90 -1.85 -0.15 -1.95 -0.10 -3.30 2.55 -0.80 1.50 -2.10 3.55 -2.95 4.60 -0.80 1.05 -1.50 2.10 -1.50 2.40 0 0.65 1.55 1.55 2.50 1.40 0.35 -0.05 2.60 -2.35 4.90 -5.05z m72.50 1.45 c4.20 -1 7.60 -2.50 11.65 -5.05 3.75 -2.40 4.10 -2.75 3.65 -3.95 -0.30 -0.70 -0.80 -0.80 -2.90 -0.55 -2.95 0.30 -11.45 -0.60 -11.70 -1.25 -0.10 -0.25 -2.90 -0.45 -6.25 -0.45 -3.35 0 -7 -0.25 -8.05 -0.50 -1.10 -0.25 -2.25 -0.30 -2.50 -0.10 -0.30 0.20 -2.80 0.80 -5.50 1.35 -2.75 0.55 -5.05 1.25 -5.15 1.55 -0.25 0.85 5.05 4.95 8.75 6.80 5.75 2.85 11.85 3.60 18 2.15z m-40.75 -1.95 c1.60 -0.65 4.85 -3.90 4.85 -4.80 0 -0.70 -2.05 -0.60 -8.05 0.45 -7.55 1.30 -8.10 1.85 -3.80 3.80 2.95 1.40 4.70 1.55 7 0.55z m-48.75 -5.30 c1.95 -1.45 3.75 -3.90 3.30 -4.55 -0.15 -0.30 -0.85 -0.75 -1.55 -1 -0.70 -0.25 -3.40 -1.85 -6 -3.55 l-4.80 -3.10 -2.40 2.75 c-1.35 1.50 -2.45 2.85 -2.45 3.05 0 0.30 1.80 1.90 6.75 5.95 2.85 2.30 4.50 2.40 7.15 0.45z m-13.75 -0.35 c0.40 -0.35 -2.10 -2.15 -3 -2.15 -1.10 0 -0.70 0.95 0.75 1.70 1.55 0.85 1.80 0.90 2.25 0.45z m-5.40 -3.70 c0.20 -0.30 -2.20 -3.15 -5.35 -6.35 -6.20 -6.40 -10.20 -11.15 -14.55 -17.40 -2.85 -4.05 -4.10 -5.15 -4.95 -4.30 -0.55 0.55 0.15 2.20 3 7 3.10 5.40 5.80 8.85 10.35 13.40 3.85 3.90 9.35 8.10 10.60 8.15 0.30 0.05 0.75 -0.20 0.90 -0.50z m72.80 -1.95 c2.45 -0.65 5.95 -2.45 5.95 -3.05 0 -0.65 -1.55 -1.30 -5.60 -2.35 -3.55 -0.90 -3.90 -0.90 -4.55 -0.15 -0.95 1.10 -3.85 5.40 -3.85 5.75 0 0.85 4.55 0.70 8.05 -0.20z m-10.70 -1.65 c0.60 -0.85 1.80 -2.60 2.65 -3.80 l1.50 -2.20 -3.85 -1.95 c-2.15 -1.05 -4 -1.90 -4.20 -1.90 -0.30 0 -7.45 9.30 -7.45 9.70 0 0.15 1.30 0.40 2.90 0.60 1.55 0.20 3.30 0.50 3.85 0.75 2.10 0.85 3.45 0.50 4.60 -1.20z m61.15 -0.60 c0 -0.40 -0.35 -0.75 -0.75 -0.75 -0.80 0 -1 0.60 -0.40 1.15 0.55 0.60 1.15 0.40 1.15 -0.40z m-118.65 -1.75 c2.25 -2.80 2.05 -3.15 -0.90 -2 -3.60 1.45 -3.65 1.45 -2.65 2.55 1.20 1.30 2.25 1.15 3.55 -0.55z m129.65 -1 c3.10 -2 6.20 -5 7.25 -7.05 0.60 -1.10 0.65 -1.45 0.20 -1.15 -0.40 0.20 -1.05 0.45 -1.55 0.45 -0.45 0.05 -1.35 0.45 -2 0.95 -3.45 2.50 -5.95 3.95 -8.50 4.90 -3.10 1.10 -3.40 1.55 -2.05 3.05 1.20 1.25 3.50 0.85 6.65 -1.15z m-93.60 -1.85 c1.30 -1 1.35 -1.10 1.35 -6.45 0 -6.65 -0.70 -7.15 -2.80 -2 -0.75 1.85 -2.25 4.70 -3.30 6.25 -1.05 1.55 -2 3 -2.10 3.25 -0.35 0.85 5.45 0 6.85 -1.05z m54.10 0.85 c0 -0.25 -0.25 -0.50 -0.60 -0.50 -0.35 0 -1.30 -0.70 -2.20 -1.55 -1.95 -1.90 -3.05 -1.55 -1.95 0.55 0.40 0.80 1.15 1.55 1.60 1.65 1.65 0.45 3.15 0.35 3.15 -0.15z m15.35 -3.80 c1.80 -1.85 6.60 -10.20 5.90 -10.20 -0.15 0 -1.75 1 -3.60 2.20 -5.35 3.45 -11.05 4.65 -15.10 3.25 -4.05 -1.40 -1.95 2.05 3.35 5.55 1.75 1.15 2.85 1.50 4.75 1.50 2.35 0 2.70 -0.15 4.70 -2.30z m-82.75 -1.05 c1.65 -1.80 4.90 -6.90 4.90 -7.75 0 -0.35 -1.10 -1.90 -2.45 -3.40 l-2.45 -2.75 -4.35 4.35 -4.35 4.40 1.35 1.60 c1.25 1.55 5.20 4.85 5.80 4.90 0.15 0 0.85 -0.60 1.55 -1.35z m20.30 -2.60 l1.60 -2.15 -1.60 -2.20 c-2.65 -3.75 -2.75 -3.70 -2.70 1.80 0.05 3.10 0.25 4.95 0.55 4.85 0.30 -0.10 1.25 -1.15 2.15 -2.30z m-40 -6.45 c-1.20 -1.30 -2.85 -3.45 -3.60 -4.75 -0.75 -1.30 -1.60 -2.35 -1.80 -2.35 -0.60 0 -1.15 3.75 -0.75 5.45 0.55 2.50 2.90 3.90 6.70 4 l1.70 0.05 -2.25 -2.40z m12.05 -3.90 c4.05 -5.35 4.05 -5.15 -0.30 -6.55 -2.50 -0.80 -2.70 -0.75 -4.65 0.10 -4.45 2 -4.75 5.50 -0.85 9.65 0.85 0.85 1.70 1.60 1.85 1.60 0.15 0 1.95 -2.15 3.95 -4.80z m47.60 1.95 l2.20 -0.85 -4.75 -0.90 c-3.35 -0.60 -6 -1.50 -9.20 -3.10 -2.50 -1.25 -4.60 -2.20 -4.70 -2.10 -0.35 0.40 1.85 4.10 3.25 5.40 2.30 2.15 4.55 2.90 7.95 2.65 1.70 -0.10 4.05 -0.60 5.25 -1.10z m67.60 -2.85 c2.75 -1.15 4.05 -3 4.05 -5.70 0 -2.40 -1 -5.60 -1.70 -5.60 -0.20 0 -0.60 1.30 -0.90 2.90 -0.70 3.85 -1.25 5.15 -3.10 7.30 -1.75 2 -1.25 2.35 1.65 1.10z m78.95 -1.15 c0.75 -0.75 1.40 -1.50 1.40 -1.75 0 -0.20 -2.05 -0.40 -4.60 -0.40 l-4.60 0 1.70 1.75 c2.15 2.20 4.10 2.35 6.10 0.40z m-217.25 0.25 c0.20 -0.35 0.55 -2 0.75 -3.65 0.70 -5.70 1 -7.25 1.45 -7.55 0.75 -0.45 0.50 -1.20 -0.35 -1.20 -0.85 0 -9.20 8.10 -9.20 8.90 0 0.45 5.80 4.05 6.60 4.10 0.20 0 0.50 -0.30 0.75 -0.60z m126.90 -1.65 c2.50 -1.45 4 -3.05 4.90 -5.25 1 -2.35 1.60 -7 0.95 -7 -0.30 0 -1.55 1.55 -2.80 3.45 -1.50 2.25 -3.55 4.45 -6 6.35 -2.70 2.10 -3.60 3.10 -3.25 3.55 0.70 0.80 3.75 0.30 6.20 -1.10z m25.50 -1.40 c0.90 -0.75 1.55 -2.05 2.05 -4.10 0.80 -3.50 0.90 -4.90 0.25 -4.55 -0.70 0.45 -4.50 7.20 -4.85 8.60 -0.40 1.55 0.75 1.60 2.55 0.05z m-160.10 -4.20 c1.85 -2.25 5.80 -5.85 7.40 -6.65 1.50 -0.80 1.10 -1.55 -2.20 -4.30 -1.70 -1.35 -4.65 -4.30 -6.50 -6.50 -1.90 -2.15 -3.65 -4 -3.85 -4.10 -0.25 -0.10 -1.05 0.80 -1.80 2 -2.80 4.40 -4.35 11.65 -3.05 14.25 0.90 1.70 7.15 7.80 7.80 7.55 0.25 -0.10 1.20 -1.10 2.20 -2.25z m169.55 -1 c1.95 -1 2.20 -1.50 1 -2 -0.55 -0.20 -1.10 0.05 -1.50 0.60 -0.65 0.90 -0.75 0.90 -2.10 -0.40 -2.25 -2.15 -2.75 -1.70 -1.10 1.05 1.15 1.85 1.35 1.90 3.70 0.75z m-37.35 -3.35 c0.80 -0.95 1.15 -2 1.15 -3.35 0 -1.05 -0.15 -1.95 -0.40 -1.95 -0.20 0 -1.95 1.60 -3.85 3.55 l-3.50 3.55 2.70 -0.25 c2.20 -0.15 3 -0.50 3.90 -1.55z m-151.35 -3.15 c0 -0.20 -0.60 -1.85 -1.35 -3.75 -1.60 -3.85 -2.65 -4.45 -2.65 -1.40 0 1.50 0.35 2.40 1.55 3.75 1.45 1.65 2.45 2.20 2.45 1.40z m6.85 -10.65 c0.55 -1.25 1.80 -3.30 2.80 -4.60 l1.80 -2.35 -1.85 -3.25 c-1 -1.80 -2.05 -3.20 -2.30 -3.15 -1.15 0.35 -3.70 6.10 -4.30 9.65 -0.70 4.10 -0.40 10.25 0.60 12.45 0.60 1.35 0.65 1.25 1.45 -2.55 0.40 -2.15 1.25 -4.95 1.80 -6.20z m193.45 6.60 c2.05 -3 3.20 -5.35 3.20 -6.35 0 -0.60 -0.80 -0.75 -4.75 -0.75 l-4.75 0 -0.25 1.40 c-0.15 0.75 -0.50 2.30 -0.75 3.50 -0.75 3.10 -0.65 3.35 1.15 3.95 3.45 1.10 4.45 0.85 6.15 -1.75z m-14.90 -2.45 c0.25 -0.50 0.60 -1.70 0.75 -2.75 l0.25 -1.80 -2.55 -0.20 c-1.45 -0.15 -2.75 -0.10 -2.95 0.10 -0.20 0.15 -0.25 1.10 -0.05 2.15 0.40 2.70 3.60 4.40 4.55 2.50z m-129.50 -1.10 c0.60 -0.55 1.10 -1.10 1.10 -1.25 0 -0.40 -2.30 -0.40 -5.25 0.05 l-2.35 0.30 1.15 0.90 c1.55 1.20 3.90 1.15 5.35 0z m-62.90 -4.25 c0 -0.25 0.35 -0.85 0.80 -1.35 0.75 -0.85 0.70 -1.25 -0.50 -5.55 -1.75 -6.25 -3.10 -12.50 -3.55 -16.15 -0.60 -4.90 -1.35 -2 -1.60 5.95 -0.25 7.70 0.35 12.05 2.40 16.75 0.95 2.30 1.15 2.50 1.75 1.70 0.35 -0.50 0.70 -1.10 0.70 -1.35z m55.75 -0.15 c-0.20 -0.50 -0.55 -2.45 -0.85 -4.40 -0.80 -5.65 -0.90 -6.05 -1.45 -5.20 -0.85 1.30 -0.50 6 0.60 8.30 1 2.05 2.45 3.15 1.70 1.30z m-9.60 -1.45 c2.85 -0.95 2.60 -1.70 -0.55 -1.70 -1.30 -0.05 -3.25 -0.35 -4.35 -0.75 -2.65 -0.95 -2.75 -0.95 -2.75 0.45 0 2.60 3.35 3.50 7.65 2z m163.60 -2.95 l2.50 0 0.60 -2.25 c0.60 -2.45 0.85 -5.50 0.35 -5.50 -0.15 0 -1.65 1.20 -3.35 2.70 -2.05 1.85 -3.75 2.90 -5.30 3.30 -1.25 0.35 -2.70 0.70 -3.25 0.85 -0.50 0.15 -0.70 0.45 -0.50 0.65 0.75 0.70 2.40 0.90 4.45 0.60 1.10 -0.20 3.15 -0.30 4.50 -0.35z m-16.75 -1.55 c0 -1.85 -1.55 -7.70 -2.05 -7.70 -0.25 0 -1.35 0.60 -2.45 1.40 -2 1.30 -2.05 1.40 -1.85 3.95 0.25 3.45 0.70 3.95 3.80 3.75 2.30 -0.20 2.55 -0.30 2.55 -1.40z m-186.60 -2.55 c0.35 -1.25 1.70 -3.80 2.95 -5.60 1.25 -1.80 2.30 -3.55 2.30 -3.85 0 -0.35 -0.45 -1.55 -1 -2.75 -0.55 -1.20 -1.75 -4.35 -2.70 -7.05 l-1.70 -4.80 -1.90 -0.20 c-2.30 -0.20 -2.35 -0.15 -2.35 1.85 0 0.90 -0.35 1.90 -0.75 2.25 -0.40 0.35 -0.75 1.35 -0.75 2.20 0 2 1.25 9.05 2.45 13.80 0.50 2.05 1.10 4.35 1.25 5.15 0.50 2.05 1.50 1.60 2.20 -1z m-19.90 -0.75 c-0.25 -1.20 -0.60 -4.05 -0.80 -6.40 -0.25 -2.85 -0.50 -3.90 -0.75 -3.25 -0.65 1.70 -0.50 5.80 0.35 8.85 0.95 3.35 1.75 3.90 1.20 0.80z m220.25 -2.70 c2.20 -1.65 4.75 -5.65 4.75 -7.40 0 -1.35 -1.40 -4.30 -2.05 -4.30 -0.60 0 -1.25 1.25 -1.85 3.60 -0.30 1.30 -1.25 3.80 -2.10 5.55 -0.80 1.75 -1.50 3.35 -1.50 3.50 0 0.70 1.10 0.30 2.75 -0.95z m-6.10 -3.45 c1 -2.10 1.10 -3.45 0.25 -3.05 -0.35 0.15 -1.05 0.45 -1.50 0.60 -0.95 0.35 -1.10 1.20 -0.60 3.10 0.45 1.55 0.90 1.40 1.85 -0.65z m-19.35 -0.85 c0.80 -0.60 1.60 -1.35 1.80 -1.65 0.70 -0.95 0.40 -2.85 -0.65 -4.30 -1.65 -2.35 -2.30 -1.90 -2.55 1.95 -0.15 1.85 -0.40 3.75 -0.65 4.25 -0.50 1.15 0.30 1.10 2.05 -0.25z m43.70 -4.25 l1.25 -0.90 -3.25 -0.30 c-3.50 -0.30 -4.20 -0.05 -3.70 1.20 0.45 1.15 4.10 1.15 5.70 0z m-204.85 -2.65 c1.50 -0.80 3.10 -1.50 3.60 -1.50 0.70 0 0.80 -0.25 0.55 -1.60 -0.20 -0.90 -0.60 -1.90 -0.95 -2.25 -0.50 -0.50 -7.95 -2.65 -9.10 -2.65 -0.70 0 0.10 3.70 1.40 6.65 0.70 1.55 1.40 2.85 1.60 2.85 0.15 0 1.45 -0.65 2.90 -1.50z m211.40 -1.20 c1.80 -0.40 4.30 -1.20 5.60 -1.80 2.40 -1.15 10.80 -8.65 10.30 -9.20 -0.20 -0.20 -1.40 0.10 -2.75 0.60 -1.35 0.55 -3.70 1.10 -5.25 1.25 -1.75 0.20 -4.55 1.15 -7.50 2.55 -2.60 1.25 -6.70 2.75 -9.20 3.40 -5.15 1.35 -6.05 1.80 -5.30 2.55 1.35 1.35 9.10 1.70 14.10 0.65z m-40.10 -12.80 c0.90 -8.10 0.80 -9.25 -0.90 -10.45 -2.85 -2.05 -2.95 -1.80 -3.15 6.35 -0.10 4.05 -0.35 7.75 -0.60 8.25 -0.35 0.75 -0.10 0.85 1.85 0.85 l2.20 0 0.60 -5z m8 2.90 c0.85 -1.15 1.55 -2.40 1.55 -2.75 0 -0.80 -3.35 -5.45 -4.90 -6.85 -1.05 -0.90 -1.05 -0.90 -1.30 0.25 -0.15 0.65 -0.40 2.80 -0.55 4.70 -0.15 1.95 -0.45 4.25 -0.60 5.15 l-0.25 1.60 2.25 0 c2.10 0 2.40 -0.15 3.80 -2.10z m12.15 -1.25 c0.95 -0.85 1.25 -3.85 0.45 -4.35 -0.60 -0.40 -2.55 2.75 -2.55 4.15 0 1.25 0.85 1.35 2.10 0.20z m14.25 -0.70 c5.30 -2.15 10.35 -6 12.70 -9.75 1 -1.70 3.05 -7.20 2.65 -7.20 -0.15 0 -2.35 1 -4.85 2.25 -2.55 1.25 -5.10 2.25 -5.70 2.25 -1.30 0 -1.90 0.75 -3.65 4.45 -0.80 1.65 -2.20 4.20 -3.10 5.65 -2.40 3.70 -2.50 3.90 -2.20 3.90 0.10 0 2 -0.70 4.15 -1.55z m-196 -1.70 c0.30 -5.75 2.75 -13.55 5.35 -16.95 1 -1.35 1.20 -2.30 1.40 -6.65 0.15 -2.85 0.10 -5.15 -0.10 -5.15 -0.20 0 -1.40 0.70 -2.65 1.55 -5.45 3.60 -8.35 9.90 -8.35 18.40 0 4.20 0.85 9.95 1.65 10.95 0.30 0.35 1 0.60 1.55 0.50 0.90 -0.15 1.05 -0.55 1.15 -2.65z m6.90 -2.75 c1.85 -5.60 5.70 -12.40 8.90 -15.85 1.65 -1.70 2.85 -3.15 2.65 -3.15 -0.15 0 -1.55 0.80 -3.05 1.75 -4.85 3.15 -8.45 8.90 -10.20 16.35 -1.25 5.35 -0.05 5.95 1.70 0.90z m-15.70 1.75 c-0.55 -2.65 -0.55 -12.30 -0.05 -15 0.80 -4.20 3.15 -8.70 6.35 -12.20 2.25 -2.50 2.65 -3.20 2.35 -4.25 -0.45 -1.90 -1.25 -1.60 -4.05 1.35 -6.95 7.40 -11.30 16.95 -12 26.70 l-0.30 3.65 1.45 0.05 c0.80 0 1.90 0.20 2.45 0.45 0.55 0.25 1.70 0.40 2.50 0.35 1.20 -0.10 1.45 -0.30 1.30 -1.10z m225.95 -1.35 c7.15 -4.75 9.05 -9.15 10.30 -23.75 0.30 -3.65 0.25 -4.15 -0.50 -4.15 -0.45 0 -0.80 0.20 -0.80 0.40 0 0.25 -1.45 2.05 -3.25 4 -1.80 2 -3.25 3.90 -3.30 4.25 0 0.35 -0.15 1.95 -0.25 3.60 -0.45 6.10 -2.55 12.25 -5.40 15.65 -2.45 2.85 -1.20 2.85 3.20 0z m-242.55 0.30 c0.40 -0.35 -0.60 -1.20 -1.40 -1.20 -1.05 0 -2.20 1.15 -1.70 1.65 0.25 0.30 2.60 -0.05 3.10 -0.45z m47.70 -1.80 c1.10 -1.20 1.10 -1.40 -0.30 -1.40 -1.45 0 -2.35 0.90 -2.35 2.25 0 1.50 0.65 2 1.25 0.95 0.25 -0.45 0.90 -1.30 1.40 -1.80z m165.60 -1.40 c0.70 -1.10 1.25 -2.20 1.25 -2.50 0 -0.65 -3.85 -0.65 -4.25 -0.05 -0.35 0.60 0.85 4.55 1.35 4.55 0.20 0 0.95 -0.90 1.65 -2z m-12.75 -1.80 c0 -0.55 -2.75 -1.25 -3.25 -0.80 -0.10 0.15 0.25 0.90 0.85 1.75 1 1.40 1.10 1.45 1.75 0.55 0.35 -0.50 0.65 -1.15 0.65 -1.50z m-214.45 -3.20 c1.65 -0.90 1.30 -4.05 -0.65 -5.95 -1.85 -1.80 -5.80 -3.85 -8.35 -4.35 l-1.65 -0.35 0.35 1.70 c0.75 3.35 5.30 8.60 7.95 9.10 0.55 0.10 1.10 0.25 1.20 0.30 0.10 0 0.60 -0.20 1.15 -0.45z m215.90 -1.85 c1.50 -5.95 1.15 -14.40 -0.85 -20.35 -1.45 -4.35 -5.15 -10.30 -8.50 -13.80 l-3.15 -3.25 0.30 3.50 c0.15 1.95 0.50 6 0.75 9 0.30 3.05 0.50 9.75 0.45 14.90 0 5.20 0.05 9.50 0.15 9.55 3.15 2.25 3.95 2.50 8.45 2.70 1.80 0.10 1.85 0.05 2.40 -2.25z m14.40 0.30 c1.10 -2.25 2.20 -7.40 2.05 -9.30 l-0.15 -1.90 -1.90 2.75 c-3.25 4.75 -6.35 9.50 -6.35 9.80 0 0.15 1.30 0.20 2.85 0.10 2.55 -0.15 2.95 -0.30 3.50 -1.45z m-44.45 -1.05 c0.35 -0.35 0.60 -1.10 0.60 -1.75 0 -0.95 -0.25 -1.15 -1.60 -1.15 -0.95 0 -2.05 -0.45 -2.75 -1.10 -1.40 -1.35 -1.85 -1 -1.15 0.90 1.15 3 3.50 4.50 4.90 3.10z m59.45 -2.35 c2.80 -1.35 5.30 -2.90 5.60 -3.45 0.65 -1.20 -0.10 -8.70 -1.25 -12.60 -1 -3.45 -3.20 -8.50 -3.70 -8.50 -0.20 0 -1.65 1.55 -3.20 3.50 l-2.80 3.45 0.05 8.45 c0.05 5.45 -0.15 8.80 -0.50 9.50 -1.50 2.75 -0.60 2.70 5.80 -0.35z m-258.60 -0.05 c0.20 -0.30 0.15 -0.80 -0.15 -1.15 -0.25 -0.35 -0.75 -1.65 -1.10 -2.95 -0.65 -2.50 -1.05 -2.75 -3.25 -1.90 -1.65 0.60 -2 1.65 -1.25 3.45 0.85 2.15 4.90 3.90 5.75 2.55z m215.55 -0.15 c0.15 -0.40 0.15 -2.80 0.10 -5.40 l-0.15 -4.70 -0.85 1.85 c-0.45 1.05 -1.55 2.90 -2.35 4.10 -0.85 1.25 -1.55 2.45 -1.55 2.65 0 0.50 2.80 1.95 3.90 2.10 0.35 0 0.75 -0.25 0.90 -0.60z m25.15 -5.70 c1.05 -1.60 2.65 -3.80 3.55 -4.90 1.45 -1.80 1.60 -2.25 1.35 -4.50 -0.40 -3.60 -1.95 -8 -2.85 -8 -1.20 0 -3.45 7.45 -4.35 14.40 -0.15 1.30 -0.45 2.35 -0.65 2.35 -0.15 0 -0.30 0.80 -0.30 1.75 0.05 2.50 0.95 2.20 3.25 -1.10z m-42.45 0.15 c0 -1.15 -5.35 -8.55 -6.15 -8.55 -0.35 0 -0.65 0.90 -0.75 2.05 -0.10 1.45 0.15 2.35 0.95 3.40 1.20 1.55 5.95 4 5.95 3.10z m9.35 -7.10 c0.75 -3.60 0.80 -6.70 0.15 -6.70 -0.25 0 -0.50 -0.95 -0.55 -2.10 -0.05 -3 -1.05 -5.55 -2.60 -6.40 -1.10 -0.60 -1.45 -0.60 -2.60 0 -2.40 1.30 -2.50 2.25 -0.55 5.90 0.95 1.85 2.20 5.05 2.80 7.10 0.60 2.05 1.20 4.15 1.35 4.65 0.50 1.65 1.35 0.55 2 -2.45z m68.20 -5 l3.60 -6.85 -0.60 -3.30 c-0.80 -4.35 -2.45 -6.55 -4.85 -6.55 -1.80 0 -5.55 1.65 -7.65 3.35 l-1.15 0.95 1.55 3.10 c2.10 4.10 3.30 7.65 4.05 11.60 0.70 3.80 0.90 4.50 1.20 4.50 0.15 0 1.85 -3.05 3.85 -6.80z m-241.25 -0.60 c2.70 -2.70 6.40 -5.90 8.15 -7.05 2.30 -1.60 3 -2.30 2.50 -2.55 -1.45 -0.80 -8.55 -2 -11.90 -2 l-3.50 0 -0.25 2.15 c-0.45 3.80 -0.70 14.35 -0.35 14.35 0.20 0 2.60 -2.20 5.35 -4.90z m245.20 -1.10 c0 -0.40 -0.55 0.10 -1.25 1.10 -0.70 1 -1.25 2.05 -1.25 2.25 0 0.75 2.45 -2.60 2.50 -3.35z m-42.45 -4.85 c0.60 -1.60 1.45 -3.40 1.85 -4 0.65 -1.05 0.55 -1.30 -0.80 -3 -2.70 -3.35 -7.25 -7.50 -11.10 -10.05 -4.75 -3.15 -14.70 -8.25 -14.90 -7.60 -0.35 1 1.15 2.65 5.80 6.20 2.65 2.05 6.15 5.20 7.75 7 3.10 3.50 8.20 11.25 8.65 13.15 0.50 1.95 1.55 1.30 2.75 -1.70z m18.15 -0.05 l2.50 -2.65 -0.95 -1.60 c-1.45 -2.55 -2.85 -3.85 -4.10 -3.85 -1.20 0 -4.65 1.25 -4.65 1.70 0 0.10 0.80 1.85 1.75 3.85 0.95 2.05 1.75 4.10 1.75 4.60 0 1.40 1 0.85 3.70 -2.05z m27.95 -2.20 c-0.10 -0.25 0.05 -0.40 0.40 -0.40 0.35 0 0.45 -0.15 0.25 -0.35 -0.20 -0.25 -0.70 0.05 -1.10 0.55 -0.90 1.25 -0.90 2.05 0 1.20 0.40 -0.35 0.60 -0.80 0.45 -1z m-199.65 -1.70 c0.55 -0.60 0.55 -1.80 0.15 -5.75 -0.25 -2.70 -0.60 -5.10 -0.80 -5.25 -0.90 -0.90 -11.65 7.70 -11.20 9 0.10 0.30 0.95 0.70 1.90 0.90 0.95 0.15 2.85 0.65 4.20 1.05 3.35 1 5 1 5.75 0.05z m111.20 -3.25 c0.90 -4.50 -0.20 -7.45 -3.15 -8.60 -2.15 -0.85 -6.05 -1.15 -6.05 -0.45 0 0.20 1.50 2.20 3.30 4.35 1.85 2.20 3.65 4.50 4.05 5.15 1.05 1.50 1.45 1.40 1.85 -0.45z m-145.95 -1.50 c0.75 -1.45 0.75 -1.70 -0.45 -4.85 -2 -5.20 -2.75 -8 -3.10 -11.65 -0.30 -2.95 -0.55 -3.65 -2.05 -5.25 l-1.70 -1.90 -1.35 1.65 c-3.70 4.60 -8.80 15.10 -9.20 19.05 l-0.15 1.75 4.75 0.35 c2.60 0.20 6.20 0.80 8 1.30 4.35 1.30 4.35 1.30 5.25 -0.45z m129.55 -0.50 c-0.45 -2.65 -1.90 -5.50 -4.15 -8 -2.15 -2.40 -4.05 -3.45 -6.15 -3.45 -1.75 0 -5 1.25 -5 1.90 0 0.25 1.75 1.20 3.90 2.15 3.05 1.30 4.55 2.40 7.25 5.10 1.85 1.90 3.35 3.65 3.35 3.90 0 0.25 0.25 0.45 0.55 0.45 0.40 0 0.45 -0.65 0.25 -2.05z m69.05 -2.55 c1.05 -0.60 2 -1.15 2.10 -1.25 0.70 -0.55 -10 -9.15 -16.50 -13.30 -4.90 -3.10 -21.65 -10.85 -23.45 -10.85 -0.30 0 -0.50 0.60 -0.50 1.40 0 1.20 0.30 1.50 2.65 2.30 10.85 3.85 23.60 12.05 30.15 19.40 1.60 1.85 3.10 3.35 3.30 3.40 0.20 0 1.20 -0.50 2.25 -1.10z m-169.55 -6.35 c1.90 -1.10 3.80 -2.05 4.10 -2.05 0.35 0 0.60 -0.35 0.60 -0.75 0 -1 -0.35 -0.95 -5.45 0.70 -4.80 1.60 -11.55 4.80 -11.55 5.50 0 0.25 0.85 1.15 1.90 1.95 l1.85 1.55 2.50 -2.40 c1.40 -1.35 4.10 -3.35 6.05 -4.50z m-22.70 1.50 c0.80 -0.65 0.90 -1.65 0.90 -7 0 -8.60 0.70 -12.30 3.55 -19.40 0.90 -2.25 0.30 -2.50 -2.05 -0.95 -2.60 1.70 -5.75 6.60 -6.55 10.05 -0.85 3.80 -0.30 11.70 1.05 15.65 1.10 3.15 1.25 3.25 3.10 1.65z m11.60 -7.75 c1.20 -0.65 3.75 -1.70 5.70 -2.35 2 -0.65 3.60 -1.30 3.60 -1.50 0 -0.15 -0.40 -1.20 -0.85 -2.25 -0.55 -1.35 -0.85 -3.60 -0.95 -7.20 -0.05 -2.90 -0.30 -5.25 -0.50 -5.25 -0.25 0 -0.80 1.65 -1.15 3.65 -0.40 1.95 -0.95 3.60 -1.15 3.60 -0.20 0 -0.40 -2.40 -0.40 -5.30 0 -6.35 -0.35 -6.45 -3.35 -1.10 -2.55 4.55 -3.60 8.15 -4 14.30 -0.35 5.20 -0.30 5.25 3.05 3.40z m40.05 -6 c-0.50 -0.70 -1.05 -1.30 -1.30 -1.30 -0.70 0 -1.45 2.30 -1.45 4.40 l0 1.85 1.80 -1.80 c1.80 -1.80 1.80 -1.85 0.95 -3.15z m-23.50 0.75 l1.50 -0.30 -0.15 -4 c-0.05 -2.20 0.20 -5.30 0.55 -6.90 0.40 -1.55 0.60 -2.95 0.40 -3.05 -0.65 -0.40 -6.55 -1.50 -6.80 -1.25 -0.60 0.65 -0.85 9 -0.30 11.10 1.25 5.05 1.35 5.15 4.80 4.40z m168.75 -8.55 c3.80 -3.15 5.30 -4.85 4.85 -5.35 -1.05 -1 -12.05 0.60 -13.80 2 -0.40 0.35 -1.90 2.40 -3.35 4.60 -2.85 4.30 -2.85 4.45 0 5.95 1.40 0.70 1.55 0.65 5 -1.65 1.95 -1.35 5.25 -3.80 7.30 -5.55z m-154.85 5.90 c0.15 -0.90 0.45 -2.70 0.65 -4 l0.30 -2.35 -3.05 -1.50 c-4.40 -2.25 -4.50 -2.20 -5.30 1.75 -0.45 2.25 0.60 2.90 4 2.50 1.50 -0.15 2.75 -0.10 2.75 0.10 0 0.25 -0.60 1.10 -1.30 1.85 -1.10 1.20 -1.50 1.35 -3.25 1.05 -2.45 -0.40 -3.15 -0.05 -2.45 1.25 0.45 0.80 1.10 0.95 3.95 0.95 l3.45 0 0.25 -1.60z m140.10 -4.70 c1 -1.55 1.70 -2.90 1.60 -3.05 -0.30 -0.30 -7.20 3.15 -7.60 3.80 -0.30 0.55 2.05 2 3.35 2.05 0.50 0 1.60 -1.15 2.65 -2.80z m-79.25 0.60 c0 -0.65 -0.35 -1.35 -0.80 -1.50 -1.05 -0.40 -15.70 0.25 -15.70 0.75 0 0.20 1.75 0.50 3.90 0.70 2.15 0.20 4.70 0.50 5.65 0.75 0.95 0.20 2.90 0.40 4.35 0.45 2.40 0.05 2.60 -0.05 2.60 -1.15z m-33.60 -0.80 c0.05 -0.45 -0.20 -1.20 -0.55 -1.70 -0.70 -0.95 -0.75 -0.90 -2.55 0.50 -1 0.80 -1.80 1.65 -1.80 1.85 0 0.20 1.05 0.35 2.35 0.25 1.65 -0.10 2.45 -0.40 2.55 -0.90z m47.60 -1.35 l2.95 -1.35 0.15 -4.20 c0.10 -3.35 0 -4.30 -0.60 -4.60 -0.40 -0.20 -2.65 -0.50 -4.95 -0.65 -3.80 -0.30 -4.15 -0.25 -3.90 0.55 0.50 1.70 2.30 8.90 2.60 10.25 0.15 0.75 0.40 1.35 0.55 1.35 0.15 0 1.60 -0.60 3.20 -1.35z m-25 -1.20 c4.80 -0.30 8.95 -0.70 9.15 -0.90 0.20 -0.20 -0.55 -2.20 -1.65 -4.45 l-2.05 -4.10 -2.25 0 c-1.25 0 -3.30 0.25 -4.60 0.55 -5.95 1.35 -7.10 1.65 -11.05 2.85 -2.30 0.70 -4.25 1.55 -4.35 1.85 -0.15 0.30 0.25 1.65 0.85 2.95 l1.05 2.45 3.10 -0.35 c1.65 -0.15 7 -0.55 11.80 -0.85z m-37.80 -5.35 c1.10 -1 2.80 -2.45 3.75 -3.20 1 -0.75 1.60 -1.60 1.45 -2 -0.30 -0.70 -5.85 -3.90 -6.75 -3.90 -0.30 0 -0.65 1.95 -0.80 4.40 -0.20 2.40 -0.45 4.85 -0.65 5.50 -0.50 1.65 0.65 1.40 3 -0.80z m-9.95 -4.85 l0.35 -3.50 -2.05 2 c-1.15 1.05 -2.05 2.20 -2.05 2.50 0 0.45 3.05 2.90 3.30 2.60 0.05 -0.05 0.25 -1.65 0.45 -3.60z m34.25 -0.60 c5 -1.80 10.60 -3.15 13 -3.15 2.05 0 2.30 -0.85 0.70 -2.55 -1.65 -1.75 -2.65 -1.80 -8.25 -0.40 -4.25 1.05 -13.45 5.05 -13.45 5.80 0 0.25 0.35 0.95 0.80 1.55 0.55 0.80 1.05 1.05 1.65 0.80 0.45 -0.20 2.95 -1.10 5.55 -2.05z m-40.35 -3.55 c1.30 -1.35 2.35 -2.60 2.35 -2.85 0 -0.55 -5.50 0.15 -8.60 1.15 -1.45 0.45 -2.55 1.10 -2.45 1.35 0.15 0.50 4.75 2.60 5.80 2.70 0.30 0.05 1.55 -1.05 2.90 -2.35z m32 -2.60 c4.75 -2.60 11.35 -5 13.60 -5 2.75 0 2.10 -1.05 -2.35 -3.75 -3.65 -2.15 -4.55 -2.50 -7.40 -2.65 -2 -0.10 -4.50 0.10 -6.45 0.65 -3.25 0.85 -12.05 4.95 -12.05 5.65 0 0.20 1.65 1.20 3.65 2.20 1.95 1.05 4.40 2.55 5.35 3.35 0.95 0.85 1.80 1.50 1.85 1.55 0.05 0 1.75 -0.90 3.80 -2z m44.85 1.50 c0 -0.45 -8 -2.20 -8.35 -1.85 -0.10 0.15 0.20 0.70 0.70 1.20 0.70 0.70 1.70 0.90 4.30 0.95 1.85 0 3.35 -0.15 3.35 -0.30z m28.50 -3.75 l2.20 -2.25 -0.85 -1.65 c-1 -1.80 -7.80 -9.05 -9.30 -9.85 -0.75 -0.40 -1.10 -0.20 -1.85 0.90 -0.50 0.75 -2 2.55 -3.35 4 -3.30 3.45 -3 4.05 3.35 7.30 2.65 1.40 5.10 2.80 5.40 3.15 0.95 1.15 2.15 0.70 4.40 -1.60z m-20.75 0.25 c0.30 -0.50 -1.70 -1.50 -3.05 -1.50 -1.05 0 -0.85 0.80 0.45 1.40 1.45 0.70 2.20 0.70 2.60 0.10z m-17.05 -5 c1.95 -0.75 1.55 -1.40 -1.05 -1.75 -1.35 -0.20 -3.15 -0.55 -4 -0.75 -2 -0.50 -2.05 -0.20 -0.30 1.60 1.40 1.50 3.10 1.75 5.35 0.90z m-62.10 -4.05 c-0.10 -1.75 -0.35 -3.35 -0.55 -3.60 -0.20 -0.20 -1.95 0.75 -3.90 2.05 -5.30 3.65 -6.10 4.30 -6.15 4.75 0 0.25 2.40 0.30 5.40 0.20 l5.35 -0.25 -0.15 -3.15z m12.30 -0.15 c2.10 -1.25 4.80 -2.65 6 -3.10 1.25 -0.45 2 -1 1.75 -1.25 -0.25 -0.25 -3.25 -0.50 -6.65 -0.60 l-6.20 -0.10 0.15 2.55 c0.10 2.10 0.30 3.85 0.50 4.60 0.10 0.30 0.85 -0.05 4.45 -2.10z m62.10 1.70 c0 -0.75 -6.05 -7 -8.80 -9 -7.85 -5.85 -20.20 -9.45 -30.15 -8.85 -5.15 0.30 -12.05 1.35 -12.05 1.85 0 0.15 2.85 1.10 6.35 2.15 7.20 2.15 12.95 4.70 18.25 8.10 2.25 1.50 4.80 2.65 6.65 3.10 6.25 1.45 10.65 2.25 14.75 2.60 2.35 0.25 4.40 0.45 4.65 0.50 0.20 0 0.35 -0.15 0.35 -0.45z m12.80 -4.30 c1.50 -1.50 2.65 -3.05 2.55 -3.35 -0.25 -0.85 -7.75 -4.55 -12.25 -6.05 -3.60 -1.25 -3.90 -1.25 -4.50 -0.45 -0.55 0.75 -0.10 1.35 3.30 4.90 2.15 2.20 4.55 4.85 5.30 5.90 0.75 1 1.70 1.85 2.10 1.85 0.40 0 2 -1.25 3.50 -2.80z m-16.30 -11.15 c0 -0.60 -1.95 -1.25 -2.40 -0.80 -0.35 0.35 0.85 1.25 1.80 1.25 0.30 0 0.60 -0.20 0.60 -0.45z"/>
 </g>
</svg>