<svg width="200" height="200" viewBox="0 0 200 200" fill="none" xmlns="http://www.w3.org/2000/svg">
<g clip-path="url(#clip0_7_2)">
<rect width="200" height="200" rx="36" fill="black" fill-opacity="0.1"/>
<g filter="url(#filter0_df_7_2)">
<path d="M60.4112 111.6C58.3858 97.9995 56.7841 89.9073 68.7142 78.6639C72.67 74.9358 76.2222 70.4692 78.6317 65.8095C82.9333 57.4907 85.1385 54.181 94.8918 51.5613C105.931 48.5962 116.279 45.6182 128.104 47.6895C136.108 49.0916 140.386 52.9699 145.056 58.7371C153.607 69.2973 159.116 78.3195 159.932 91.828C160.305 97.9981 159.156 102.799 156.242 108.399C149.085 122.152 140.948 135.79 131.794 148.563C121.279 163.234 106.929 172 87.1077 172C81.1238 172 68.7425 170.363 65.024 165.702C64.1187 164.567 64.5627 162.463 64.5627 161.159C64.5627 156.34 64.4913 151.567 63.5248 146.808C61.0355 134.55 62.4869 121.32 62.4869 108.812" stroke="white" stroke-width="3" stroke-linecap="round"/>
</g>
<g filter="url(#filter1_df_7_2)">
<path d="M89.8572 84.893C87.8041 98.8927 83.5453 112.295 79.1431 125.825C76.4525 134.094 74.7583 142.969 71.4243 151.045C69.4502 155.827 74.9111 141.338 76.6085 136.471C82.7182 118.954 87.4416 100.96 91.2397 82.9291C92.6567 76.2021 93.5287 71.0031 94.5807 64.3238C95.0313 61.4624 94.956 56.0014 96.5392 53.1606C97.0079 52.3194 97 55.011 97 55.9514C97 63.528 96.4325 71.1383 95.8479 78.6912C94.9842 89.851 93.654 100.943 91.9885 112.026C91.5435 114.987 91.6075 118.818 89.8572 121.173" stroke="white" stroke-width="3" stroke-linecap="round" shape-rendering="crispEdges"/>
</g>
<g filter="url(#filter2_df_7_2)">
<path d="M115.491 105.673C115.491 104.078 115.093 102.082 116.37 100.811C116.458 100.723 117.218 99.9251 116.756 100.294C115.064 101.645 113.836 103.158 112.609 104.857C110.24 108.139 108.044 111.1 106.073 114.581C104.933 116.593 104.236 116.653 103.718 114.362C102.529 109.097 102.766 102.619 104.808 97.5804C106.071 94.4618 107.201 91.1798 109.095 88.3115C109.615 87.5248 110.472 86.2123 111.625 85.9747C111.984 85.9009 112.012 97.6089 112.012 98.6155C112.012 105.454 112.31 112.362 111.959 119.192C111.851 121.308 111.681 123.764 110.993 125.81C110.894 126.106 110.504 126.025 110.43 125.779C108.535 119.434 109.584 112.044 111.239 105.814C113.13 98.6923 116.258 91.7551 120.481 85.4728C120.793 85.0096 122.674 81.8338 124.031 82.0068C124.888 82.1162 125.234 84.3344 125.437 84.8455C126.122 86.5695 126.846 88.1269 127.194 89.9426C128.428 96.3977 128.524 102.419 125.472 108.496C123.108 113.203 119.123 116.705 116.44 121.153C115.441 122.808 114.741 117.086 114.718 116.793C114.339 111.96 114.643 107.527 115.807 102.85" stroke="white" stroke-width="20" stroke-linecap="round" shape-rendering="crispEdges"/>
</g>
<g filter="url(#filter3_df_7_2)">
<path d="M109.594 55.827C108.511 55.827 106.336 55.4316 105.622 56.2586C104.505 57.554 103.302 57.7846 101.828 58.7046C100.2 59.7213 98.5526 60.2292 97.0235 61.7102C96.1177 62.5874 95.0521 63.8054 94.6122 64.9556C93.8605 66.9214 94.0791 69.0274 93.1406 70.9507C92.5277 72.2069 91.7314 73.3853 91.084 74.6277C90.3182 76.0973 89.277 77.4308 88.4068 78.8483C86.9234 81.2647 86.1222 84.1051 85.3041 86.7459C81.9388 97.6084 79.9348 109.11 79.2937 120.383C79.2241 121.606 79.0714 121.946 80.3752 122.301C82.9994 123.015 86.1362 122.589 88.85 122.589C93.7593 122.589 97.1034 117.913 98.3532 114.02C98.5839 113.301 98.4021 112.337 98.3532 111.622C98.0765 107.579 97.6204 103.555 97.5022 99.5036C97.4008 96.0315 97.4667 92.5533 97.4667 89.08C97.4667 86.0718 97.6486 82.7099 99.3106 80.0633C101.746 76.1858 105.936 74.4094 109.292 71.3824C112.336 68.6376 119.623 67.8138 123.459 68.6486C124.679 68.9142 125.719 69.4916 126.827 69.9915C129.183 71.0535 131.664 71.7573 133.955 72.9651C134.988 73.5098 136.082 74.1193 136.082 75.2672C136.082 76.6857 136.249 77.2587 137.04 78.4167C137.515 79.1133 138.328 79.6149 138.954 80.1912C140.575 81.6828 141.224 83.4668 142.146 85.3391C143.087 87.2515 144.176 89.0693 145.408 90.8386C146.982 93.0983 148.209 94.9228 148.209 97.6171C148.209 99.4581 147.709 100.867 146.472 102.301C145.488 103.442 145.422 105.837 145.089 107.273C144.549 109.601 143.849 111.999 141.827 113.62C140.571 114.627 140.694 114.725 140.515 116.466C140.203 119.489 138.218 122.04 136.685 124.651C135.61 126.483 134.231 127.311 132.43 128.408C131.064 129.24 130.06 129.445 129.522 130.998C128.155 134.942 125.414 137.88 122.732 141.198C120.902 143.462 117.622 143.156 115.374 144.907C113.855 146.09 113.447 148.317 112.395 149.799C111.009 151.752 108.478 153.208 106.083 153.955C103.504 154.761 102.405 157.078 99.7007 157.696C96.9812 158.319 93.8798 158.638 91.1549 157.856C89.8923 157.494 89.9918 154.326 90.4103 153.412C93.2613 147.185 98.7272 141.843 103.566 136.817C105.994 134.295 108.302 131.75 111.19 129.623C114.277 127.349 117.712 125.703 121.136 123.916C121.547 123.701 124.177 121.897 122.324 122.349C113.741 124.441 109.655 131.823 102.378 135.81C99.3646 137.461 96.2023 138.284 93.1584 139.711C90.481 140.966 87.4899 141.727 84.6658 142.669C83.3591 143.104 82.9974 143.255 82.4673 141.997C82.0632 141.038 81.2155 140.502 80.8007 139.567C80.2984 138.435 79.6923 137.093 78.8859 136.114C78.7104 135.901 76.5977 134.28 76.4214 135.155C76.2255 136.126 76.1336 137.591 75.5527 138.448C74.9439 139.346 73.8169 139.8 73.106 140.622C72.4481 141.384 72.0311 142.43 71.6344 143.324C71.1876 144.331 69.8333 146.339 70.411 147.497C71.134 148.945 71.9996 150.125 72.4322 151.685C72.9714 153.63 73.9151 155.246 73.8506 157.281C73.8246 158.102 71.8359 158.52 73.5315 159.199C75.289 159.904 78.0281 160.286 79.9319 160.286C82.3744 160.286 84.7739 160.794 87.1834 161.086C89.4583 161.361 91.8792 161.15 94.169 161.15C97.5692 161.15 102.104 161.757 105.25 160.286C106.984 159.476 108.94 158.915 110.569 157.936C112.491 156.781 112.988 154.883 113.902 153.108C114.517 151.914 115.172 150.932 115.977 149.863C116.916 148.614 117.159 146.764 118.281 145.674C119.071 144.908 123.487 142.626 123.92 144.187C124.321 145.637 124.073 148.065 123.175 149.287C122.259 150.534 120.657 150.964 119.239 151.573C115.53 153.168 112.156 155.384 108.636 157.281C105.96 158.723 102.971 159.87 100.428 161.501C98.1395 162.969 96.016 164.292 93.3534 165.21C87.9754 167.065 82.4294 167.981 76.7406 168.6C75.9775 168.683 74.0302 169.195 73.1414 168.919C72.0525 168.582 71.2566 166.739 70.8011 165.946C69.219 163.19 68.1479 160.201 67.0069 157.281C65.4793 153.372 64.4939 149.324 63.0709 145.386C59.6876 136.023 55.4514 126.844 50.9615 117.873C50.0544 116.06 48.8422 114.276 48.5147 112.277C47.9655 108.925 48.0243 105.443 48.0006 102.062C47.9745 98.342 48.826 96.8434 52.3266 94.7714C56.2902 92.4255 59.9987 90.5367 64.5602 89.4637C66.3526 89.0421 68.1402 88.6794 69.9501 88.3446C70.9324 88.1629 71.6879 86.2563 72.0954 85.6108C72.7899 84.5106 73.4297 83.1324 74.418 82.2056C75.6589 81.0419 72.7338 85.0556 71.8472 86.4582C66.1893 95.4085 58.8867 105.35 58.8867 116.066C58.8867 118.004 59.0747 124.553 62.1135 124.827C64.1831 125.014 64.524 122.64 64.8971 121.294C65.7012 118.393 66.1519 115.473 66.1913 112.485C66.2148 110.706 66.1913 108.925 66.1913 107.145C66.1913 106.836 66.4986 104.741 66.0141 104.492C65.8101 104.386 65.3667 104.586 65.3049 104.268C64.7729 101.527 66.328 97.7109 66.936 95.1231C68.8966 86.7787 69.5921 77.1822 75.8364 70.3752C78.1602 67.8419 80.4981 65.3144 84.2048 64.6838C86.9317 64.2199 89.6137 63.9348 92.3605 63.5327C97.0241 62.8501 100.994 60.5872 105.339 59.0244C110.076 57.3204 114.346 58.2261 119.274 58.4328C126.724 58.7453 130.404 64.7064 134.132 69.7357C138.29 75.3455 140.214 82.1744 145.656 86.9857C146.804 88.0001 148.112 88.7925 149.202 89.8794C150.075 90.7496 150.634 91.9062 151.543 92.7251C152.108 93.2353 152.723 92.4324 153.138 92.1495C153.335 92.0159 155.015 91.4567 155 91.3342C154.888 90.4299 152.569 89.0431 152.004 88.5365C148.363 85.2726 145.406 81.5227 142.164 77.953C141.005 76.6779 139.608 75.5494 138.582 74.1801C137.416 72.6243 137.544 70.3333 137.43 68.5527C137.249 65.7443 136.537 63.1645 136.082 60.4312C135.877 59.1991 124.804 59.8557 123.139 59.8557C121.985 59.8557 121.469 59.3083 120.657 58.5767C118.005 56.185 115.428 53.6739 112.963 51.1268C110.312 48.3884 108.004 45.2857 105.108 42.7496C104.957 42.6173 104.21 41.8902 103.849 42.0141C102.889 42.344 102.418 44.4773 102.13 45.2275C101.743 46.2333 101.213 46.8964 100.516 47.7375C98.6197 50.0284 97.6798 52.8811 94.6654 54.1963C94.0457 54.4667 93.261 54.5627 92.6797 54.8997C91.9238 55.3379 94.476 54.9637 95.3746 54.9637C100.185 54.9637 105.122 53.4812 109.771 52.5656C114.725 51.59 119.696 50.4847 124.788 50.3754C128.089 50.3045 130.798 51.2652 133.228 53.2371C134.581 54.3355 135.891 54.3993 136.898 55.9549C138.653 58.6685 139.045 61.6867 139.344 64.7477C139.656 67.9265 142.255 69.5677 144.947 71.4623C147.283 73.1065 149.539 74.7689 151.72 76.6101C152.811 77.5317 153.514 78.3816 152.358 79.4238" stroke="white" stroke-width="20" stroke-linecap="round" shape-rendering="crispEdges"/>
</g>
<g filter="url(#filter4_df_7_2)">
<path d="M99.3048 100.519C100.916 96.608 103.357 90.6602 107.608 88.3793C109.553 87.3356 112.864 86.6471 115.094 86.3481C115.252 86.327 117.04 85.9889 117.117 86.1882C117.446 87.0414 116.845 87.9907 116.514 88.8432C114.122 94.991 110.593 100.716 106.934 106.309C102.159 113.606 97.1072 121.374 91.0375 127.9C88.8006 130.305 85.6904 132.749 81.9362 132.363C79.5952 132.121 79.8016 129.675 79.7009 128.06C79.3168 121.905 79.8548 115.681 82.1314 109.827C84.2212 104.453 87.9644 99.4542 91.1439 94.569C93.6928 90.6526 96.4664 86.8117 99.7306 83.3412C102.691 80.194 108.593 75.3885 113.586 75.5842C120.274 75.8463 108.683 99.4108 107.448 101.366C102.828 108.681 96.9391 115.324 91.9423 122.43C88.2273 127.714 84.8264 133.195 80.6411 138.2C80.3603 138.536 71.9913 146.891 71.6818 146.085C71.0803 144.519 71.1846 142.532 71.0432 140.903C70.6464 136.333 70.4044 131.749 70.3158 127.165C70.1901 120.665 70.089 114.089 72.5334 107.876C74.1986 103.644 77.0187 100.369 79.7896 96.7441C82.6102 93.0537 83.4942 88.0304 87.028 84.8447C87.7008 84.2381 88.5335 83.4143 89.4053 83.0214C89.4793 82.988 89.6601 82.947 89.6536 83.0214C89.3411 86.6372 87.8253 91.078 86.8683 94.393C83.559 105.857 79.3584 117.011 73.8108 127.756C71.3347 132.552 68.7344 137.895 65.2773 142.231C64.7832 142.851 64.7963 142.147 64.9047 141.815C65.87 138.856 68.4705 136.169 70.5641 133.818C73.8808 130.093 77.6468 128.399 82.7169 127.245C86.0346 126.489 89.5953 125.868 92.6342 124.398C98.6308 121.497 102.891 116.237 108.424 112.706C112.19 110.303 116.378 108.429 120.328 106.293C121.559 105.627 120.537 108.277 120.488 108.516C119.7 112.37 118.847 116.136 117.241 119.791C115.382 124.024 113.075 128.063 110.535 131.995C107.938 136.013 104.718 139.627 102.072 143.606C99.2539 147.846 97.7911 153.642 92.5987 156.082C92.5383 156.11 91.17 156.79 91.0729 156.593C90.6247 155.684 92.3629 152.82 92.7584 152.003C93.9032 149.639 95.3786 147.343 96.6792 145.046C99.4162 140.211 103.341 136.447 107.501 132.571C110.833 129.466 113.663 126.519 116.035 122.766C119.449 117.362 123.048 112.091 127.088 107.044C130.19 103.168 134.049 99.478 136.384 95.1448C137.088 93.8386 137.88 92.0549 137.59 90.5545C137.066 87.8348 130.837 87.8515 128.56 87.8515C127.379 87.8515 126.193 87.8258 125.012 87.8675C122.972 87.9396 122.685 88.3556 122.333 86.1882C121.715 82.3841 120.991 78.1311 122.226 74.3687C122.941 72.1921 124.152 70.0703 125.42 68.115C126.539 66.3893 123.537 67.2125 122.155 66.9635C120.742 66.7086 119.46 66.1263 118.004 65.9719C116.029 65.7623 113.595 65.8809 111.83 64.9482C110.878 64.4449 109.895 64.5187 108.85 64.6923C106.891 65.0176 105.878 66.7455 104.858 68.131C102.766 70.9713 101.124 74.014 99.2694 76.9757C97.0617 80.5018 93.8068 86.3407 88.9085 86.9239C85.7134 87.3043 83.7962 88.7399 80.854 90.0267C78.7602 90.9425 75.9992 91.6038 74.4317 93.2575C72.9321 94.8395 72.0132 96.759 70.7948 98.5035C69.9587 99.7006 70.2448 97.6194 70.2448 97.16C70.2448 93.7355 70.9733 90.1872 73.0479 87.2438C73.9008 86.0337 75.1588 85.069 76.0107 83.869C76.9324 82.5708 77.2887 80.8042 77.7671 79.3428C78.0191 78.5728 78.796 77.3524 78.796 76.5438C78.796 76.0266 77.9736 76.8363 77.8913 76.8957C76.8917 77.6166 75.5282 78.0604 74.3962 78.5751C71.9456 79.6891 70.9807 80.4984 69.9964 82.7975C67.877 87.7478 66.4433 92.9991 64.6741 98.0556C64.1029 99.6882 63.1395 102.447 62.4387 104.229C62.1362 104.999 61.6695 106.872 60.8597 107.428C60.6167 107.595 58.8546 105.747 58.5001 105.541C57.9978 105.249 57.582 105.144 57.2937 104.661C55.7251 102.035 55.183 100.031 57.6486 98.1196C59.1568 96.9503 60.6646 94.3362 60.6646 92.4578C60.6646 90.4277 58.4178 92.1442 57.7905 90.7304C57.3161 89.6613 56.0103 91.6083 55.8035 91.882C54.5924 93.4849 52.7404 94.7316 50.9069 95.6885C50.0158 96.1536 49.8118 97.5846 49.328 98.3115C48.7027 99.2511 47.8937 100.116 47.1103 100.951C46.3253 101.787 45.8995 102.835 45.7265 103.909C45.5157 105.219 45.0392 106.632 45.0169 107.94C44.975 110.391 44.9032 112.475 46.2942 114.641C47.8041 116.992 48.2617 119.819 50.1263 121.967C51.4252 123.463 51.8827 124.47 52.3617 126.365C52.82 128.178 53.1848 128.615 54.1713 126.877C55.336 124.824 56.3849 123.287 56.9212 121.039C57.661 117.938 58.618 114.81 58.9969 111.65C59.1359 110.491 58.8338 109.99 57.7373 111.091C55.2217 113.615 53.5835 116.881 52.0778 119.951C50.9915 122.166 50.0454 124.286 49.8779 126.717C49.706 129.212 48.8118 133.842 50.5876 136.025C51.212 136.793 52.1271 137.304 52.681 138.136C53.4297 139.261 53.9634 140.125 54.9874 141.015C57.2429 142.976 56.6352 145.03 57.7728 147.509C58.793 149.732 59.9455 151.88 61.5516 153.81C63.3357 155.955 63.5564 158.865 65.3128 161.072C67.1485 163.378 64.7973 167.198 66.7321 169.676C68.835 172.371 73.392 172.059 76.7558 171.9C80.2339 171.735 83.1188 170.882 86.3183 169.74C90.3494 168.302 95.168 169.235 97.8146 165.486C99.0268 163.769 99.4842 161.665 100.298 159.792C101.582 156.839 104.386 155.055 106.579 152.675C109.826 149.15 112.369 145.167 115.236 141.399C116.179 140.161 117.34 139.079 117.827 137.609C118.756 134.802 119.444 131.964 120.541 129.196C121.762 126.115 123.492 123.698 125.562 121.055C129.053 116.597 133.108 112.134 134.042 106.612C134.395 104.524 134.432 102.434 134.432 100.327C134.432 98.8585 134.46 97.1922 134.432 99.8789C134.286 114.213 133.366 128.78 131.345 142.999C130.214 150.959 128.819 159.29 121.765 164.782C121.087 165.31 120.799 165.294 119.885 165.294C116.575 165.294 113.023 166.716 109.843 167.405C109.718 167.432 105.029 168.532 105.514 167.821C106.002 167.106 106.762 166.493 107.395 165.902C112.63 161.009 117.646 155.853 121.517 149.988C125.44 144.043 127.686 137.277 130.778 130.971C131.57 129.355 132.43 127.763 133.208 126.141C134.411 123.633 134.664 120.445 136.49 118.208C137.24 117.29 138.356 116.679 139.134 115.777C140.723 113.935 141.947 111.874 143.622 110.083C144.916 108.7 146.487 107.57 147.809 106.213C149.483 104.494 150.498 102.586 151.854 100.711C152.6 99.679 153.897 98.8272 154.906 98.0237C156.584 96.6865 157.05 94.9061 157.691 93.0176C158.74 89.9266 157.46 87.3159 155.58 84.5248C154.278 82.5923 151.762 81.8489 150.257 80.1105C148.961 78.6128 148.059 76.8937 146.638 75.4722C144.8 73.6335 142.515 72.1992 140.411 70.6261C138.017 68.8359 136.626 68.5884 133.226 68.4029C128.759 68.1593 123.652 66.8304 122.564 71.7936C122.163 73.6199 121.92 76.2006 124.001 77.2636C125.756 78.1605 127.781 78.3845 129.731 78.655C132.401 79.0253 133.839 81.5066 136.136 82.5416C136.568 82.7364 136.828 82.9599 136.153 82.5416C130.989 79.341 124.535 77.4704 118.678 75.6642C110.999 73.296 102.604 70.6421 94.3728 70.6421C86.7271 70.6421 79.7927 73.4992 72.7818 75.8401C69.421 76.9623 65.2734 77.7123 61.7113 76.8797C58.3396 76.0917 61.9158 73.2705 63.2193 71.8576C64.2073 70.7868 65.3926 69.889 66.395 68.8348C67.7392 67.421 68.3739 65.5515 69.3932 63.9566C72.1402 59.6584 77.9341 58.5019 80.7298 54.2003C83.2189 50.3707 85.5967 46.6789 89.5472 43.9003C92.5175 41.811 95.8838 40.3244 98.7194 38.0465C101.553 35.7701 104.595 32.0794 108.779 32.0008C112.087 31.9387 112.428 35.5551 114.491 37.3747C118.67 41.0599 124.731 41.8687 128.755 45.7715C131.492 48.4257 134.275 50.6957 137.59 52.7609C141.254 55.0431 143.31 57.3966 145.024 61.1417C145.75 62.7287 146.737 64.5854 147.135 66.2917C147.25 66.786 144.019 66.5488 143.8 66.5476C137.374 66.5143 132.832 63.5201 127.088 61.1257C120.213 58.2602 113.631 56.1162 106.117 55.3839C103.881 55.1659 101.441 55.093 99.5 56.2156C97.974 57.0981 97.3372 58.2017 96.6437 59.6703C96.4695 60.0391 95.0898 62.3633 96.1292 61.6535C99.8169 59.1349 102.838 55.7871 106.774 53.5606C108.203 52.7524 109.274 53.2634 110.624 53.8165C112.628 54.6379 114.907 55.658 116.975 56.2795C117.309 56.38 117.088 55.9917 117.33 55.9597C119.934 55.6144 123.913 57.2473 126.236 58.0389C133.355 60.4653 140.318 63.7557 146.993 67.0275C150.274 68.6359 153.623 70.3637 156.449 72.5933C159.496 74.9964 163.322 76.3064 166.757 78.1912C170.124 80.039 171.882 83.3596 173.055 86.636C173.793 88.6982 175.166 92.3021 172.044 93.2575C170.307 93.7889 169.36 93.9316 168.105 95.3047C165.649 97.991 163.812 101.056 160.725 103.238C159.082 104.399 157.48 105.088 156.396 106.788C154.253 110.149 153.592 114.107 152.315 117.76C150.048 124.249 145.613 129.655 139.222 133.338C137.149 134.533 134.801 135.464 132.836 136.793" stroke="url(#paint0_linear_7_2)" stroke-width="20" stroke-linecap="round" shape-rendering="crispEdges"/>
</g>
<g filter="url(#filter5_df_7_2)">
<path d="M104.457 47.3433C104.457 46.7119 104.863 46.2751 105.328 45.8223C105.681 45.4781 106.039 45.1888 106.304 44.7765C106.315 44.7584 106.709 43.871 106.809 44.016C107.327 44.7695 106.676 45.7796 106.217 46.3768C99.1879 55.5079 94.4835 66.2855 89.7864 76.4968C84.4542 88.0891 81.3337 100.497 79.7157 112.97C78.7203 120.644 79.0536 128.453 79.0536 136.167C79.0536 143.446 79.3672 150.717 79.3672 158" stroke="url(#paint1_linear_7_2)" stroke-width="20" stroke-linecap="round"/>
</g>
<g filter="url(#filter6_df_7_2)">
<path d="M88.82 82.695C92.0101 84.0749 95.3576 85.2373 98.3975 86.8825C103.827 89.8209 107.611 94.0354 111.363 98.5338C115.013 102.911 117.091 107.345 117.872 112.838C118.571 117.758 116.327 121.051 113.225 124.905C108.102 131.269 99.1841 135.048 90.3807 133.744C88.7199 133.497 85.4168 132.691 84.2086 131.442C79.8799 126.969 82.9688 118.283 84.5988 113.877C88.1126 104.378 92.4232 96.865 98.2024 88.241C100.805 84.3566 103.576 80.5511 106.627 76.9413C131.824 47.132 100.633 84.648 117.872 67.7353" stroke="url(#paint2_linear_7_2)" stroke-width="20" stroke-linecap="round" shape-rendering="crispEdges"/>
</g>
<g filter="url(#filter7_df_7_2)">
<path d="M80.9137 123.084C80.1419 124.102 79.7425 125.134 78.2891 124.544C73.5912 122.634 71.7803 116.177 70.3451 112.2C66.8828 102.607 67.1415 91.1711 69.6452 81.4218C70.5551 77.8787 72.0636 74.4917 73.8972 71.268C74.6097 70.0153 75.5514 68.1027 76.6793 67.0161C77.8775 65.8617 75.4563 69.9865 74.807 71.4584C71.6368 78.6445 68.7318 85.9131 65.9357 93.2255C62.4983 102.215 59.4352 111.36 55.717 120.26C54.4675 123.251 56.1945 113.87 56.7319 110.709C58.2842 101.578 59.9323 92.4622 61.3338 83.3097C62.0979 78.3198 63.0307 73.1554 63.276 68.0949C63.3384 66.809 62.795 67.5978 62.1037 68.317C58.2143 72.3632 54.4846 76.5655 50.9227 80.8506C47.7814 84.6297 44.6014 88.5215 42.2438 92.7654C41.7745 93.6101 40.6224 96.2442 41.1239 95.4149C46.1579 87.0917 51.9405 79.0802 57.4668 71.0141C59.3956 68.1989 64.8092 60.5029 65.0258 63.8113C65.3201 68.3066 64.2863 73.229 63.5735 77.6141C62.3363 85.2249 60.5994 92.7428 59.0416 100.301C57.7027 106.798 56.379 113.318 55.612 119.895C55.513 120.744 55.3974 121.596 55.4021 122.449C55.4089 123.697 55.9836 122.816 56.3119 122.291C65.2698 107.949 73.7252 93.3486 82.8385 79.0737C83.0297 78.7742 86.0294 73.0072 87.4579 73.1401C87.7445 73.1667 87.8947 73.5457 87.9128 73.8064C88.0169 75.3004 87.0329 79.0232 86.758 80.0256C85.5509 84.4272 84.0632 88.7863 82.1736 92.9875C81.3799 94.752 80.2581 96.4871 79.6889 98.3341C79.3037 99.5842 80.1164 99.494 81.0362 98.7466C83.6215 96.6461 85.2493 93.5588 86.723 90.7823C88.3914 87.6389 89.7424 84.3624 91.3249 81.1838C91.6458 80.5391 91.9524 79.8869 92.3223 79.2641C92.9082 78.2774 92.9281 78.7211 92.7772 79.6448C90.4817 93.6939 85.7157 107.608 80.9137 121.085C80.3856 122.567 76.7925 130.713 80.4588 124.734C82.2028 121.89 83.7138 118.888 85.7781 116.214C86.7553 114.949 88.4485 113.246 88.5078 116.008C88.5824 119.486 87.4963 123.137 86.758 126.511C86.2573 128.798 84.8243 132.408 85.0782 134.856C85.0938 135.007 85.3707 135.154 85.5156 135.078C87.5975 133.994 88.8111 131.904 90.2925 130.192C95.9554 123.645 101.181 116.809 106.705 110.17C107.638 109.049 111.15 103.744 113.827 103.744C116.205 103.744 115.095 108.264 114.999 108.996C114.195 115.112 112.9 121.193 111.92 127.288C111.628 129.101 111.265 130.906 111.08 132.73C110.927 134.236 110.571 136.319 112.41 134.221C114.673 131.64 134.118 104.75 135.227 105.6C136.119 106.285 134.321 110.243 133.984 110.931C133.774 111.362 133.525 111.78 133.232 112.169C132.724 112.842 132.691 112.372 132.882 111.883C134.181 108.549 136.37 105.299 138.481 102.364C139.597 100.813 142.956 95.6526 143.241 100.904C143.612 107.75 142.302 114.989 141.298 121.735C140.352 128.094 139.173 134.429 137.816 140.726C137.53 142.056 137.222 145.414 136.277 146.739C135.259 148.165 136.72 143.355 137.186 141.71C139.58 133.262 143.251 125.478 148 117.944" stroke="url(#paint3_linear_7_2)" stroke-width="20" stroke-linecap="round" shape-rendering="crispEdges"/>
</g>
<g filter="url(#filter8_df_7_2)">
<path d="M88.7245 98.4704C84.3861 90.7538 80.2538 82.9815 73.8027 76.4744C73.1637 75.8298 71.3929 74.5338 71.1809 73.5138C70.4281 69.8921 72.1929 65.1288 73.3861 61.7811C75.6805 55.3441 80.7255 51.6474 87.867 49.5878C89.6828 49.0641 92.8338 48.7229 94.7031 49.3027C96.9144 49.9886 97.0179 52.5296 97.1533 54.2151C97.6166 59.9822 96.6645 66.0034 95.6832 71.6716C92.7536 88.594 88.5385 105.98 80.9818 121.782C79.2619 125.379 77.1227 128.729 74.7092 131.98C73.1879 134.029 73.7675 132.629 74.3172 130.949C79.3096 115.692 84.3304 100.409 89.9007 85.3123C91.7349 80.341 96.1589 67.1969 98.893 71.8251C99.9924 73.6863 100.954 77.562 101.417 79.2376C103.069 85.2275 104.31 91.3844 106.513 97.2423C107.557 100.016 108.677 102.901 112.247 103.492C117.733 104.402 124.308 103.043 129.545 101.76C141.182 98.908 150.13 92.6046 159.218 85.8167C160.055 85.1911 160.841 84.5042 161.741 83.9526C162.853 83.2712 163.172 83.5543 162.917 84.7859C161.74 90.4747 158.781 96.225 156.473 101.563C155.301 104.274 152.763 110.004 151.328 113.032C151.246 113.205 149.862 116.703 148.951 117.111C147.838 117.61 150.386 115.278 151.254 114.48C153.829 112.109 156.866 110.391 159.732 108.339" stroke="url(#paint4_linear_7_2)" stroke-width="20" stroke-linecap="round" shape-rendering="crispEdges"/>
</g>
<g filter="url(#filter9_b_7_2)">
<path d="M45.144 66.632V76.232C47.7253 76.488 50.0187 77.096 52.024 78.056C54.0293 79.016 55.704 80.1147 57.048 81.352L53.496 85.032C52.28 83.9227 50.968 83.0373 49.56 82.376C48.1733 81.7147 46.7013 81.288 45.144 81.096V95.144C47.4053 95.8693 49.4747 96.7973 51.352 97.928C53.2507 99.0587 54.7653 100.488 55.896 102.216C57.048 103.944 57.624 106.109 57.624 108.712C57.624 110.803 57.1547 112.755 56.216 114.568C55.2773 116.381 53.88 117.907 52.024 119.144C50.1893 120.381 47.896 121.181 45.144 121.544V130.888H40.696V121.736C37.6453 121.523 34.9787 120.819 32.696 119.624C30.4347 118.408 28.5787 117.096 27.128 115.688L30.616 111.816C31.96 113.16 33.4533 114.28 35.096 115.176C36.76 116.051 38.6267 116.563 40.696 116.712V99.72C36.8133 98.4187 33.8587 96.7867 31.832 94.824C29.8053 92.84 28.792 90.3653 28.792 87.4C28.792 85.5867 29.2293 83.88 30.104 82.28C31 80.68 32.3333 79.336 34.104 78.248C35.8747 77.16 38.072 76.488 40.696 76.232V66.632H45.144ZM45.144 101.288V116.456C49.1973 115.624 51.224 113.128 51.224 108.968C51.224 107.261 50.7867 105.8 49.912 104.584C49.0373 103.347 47.448 102.248 45.144 101.288ZM40.696 81.224C39.032 81.5013 37.6773 82.1413 36.632 83.144C35.5867 84.1253 35.064 85.4587 35.064 87.144C35.064 88.552 35.4373 89.7573 36.184 90.76C36.952 91.7627 38.456 92.7227 40.696 93.64V81.224ZM87.519 72.968L93.663 73.704V121H88.255L87.743 116.68C86.5483 118.387 85.1403 119.667 83.519 120.52C81.8977 121.373 80.127 121.8 78.207 121.8C75.3057 121.8 72.9057 121.064 71.007 119.592C69.1297 118.099 67.7323 116.029 66.815 113.384C65.8977 110.739 65.439 107.667 65.439 104.168C65.439 100.755 65.9617 97.7253 67.007 95.08C68.0737 92.4133 69.5883 90.312 71.551 88.776C73.535 87.24 75.9243 86.472 78.719 86.472C80.575 86.472 82.2283 86.8027 83.679 87.464C85.1297 88.104 86.4097 89.0533 87.519 90.312V72.968ZM80.319 91.304C77.695 91.304 75.6577 92.36 74.207 94.472C72.7563 96.584 72.031 99.816 72.031 104.168C72.031 107.048 72.3297 109.437 72.927 111.336C73.5243 113.235 74.3883 114.643 75.519 115.56C76.6497 116.477 78.0363 116.936 79.679 116.936C81.4497 116.936 82.975 116.424 84.255 115.4C85.5563 114.376 86.6443 113.192 87.519 111.848V95.368C86.6443 94.088 85.5883 93.096 84.351 92.392C83.135 91.6667 81.791 91.304 80.319 91.304ZM112.006 73.096V91.656C113.35 89.928 114.961 88.6373 116.838 87.784C118.737 86.9093 120.667 86.472 122.63 86.472C125.873 86.472 128.262 87.3573 129.798 89.128C131.334 90.8773 132.102 93.32 132.102 96.456V121H125.958V97C125.958 94.9733 125.521 93.512 124.646 92.616C123.793 91.6987 122.427 91.24 120.55 91.24C119.355 91.24 118.214 91.5067 117.126 92.04C116.059 92.5733 115.089 93.256 114.214 94.088C113.339 94.8987 112.603 95.7413 112.006 96.616V121H105.862V73.768L112.006 73.096ZM141.325 132.648V127.432H173.325V132.648H141.325Z" fill="white"/>
</g>
</g>
<defs>
<filter id="filter0_df_7_2" x="-2.49889" y="-14.499" width="223.999" height="247.999" filterUnits="userSpaceOnUse" color-interpolation-filters="sRGB">
<feFlood flood-opacity="0" result="BackgroundImageFix"/>
<feColorMatrix in="SourceAlpha" type="matrix" values="0 0 0 0 0 0 0 0 0 0 0 0 0 0 0 0 0 0 127 0" result="hardAlpha"/>
<feOffset dy="4"/>
<feGaussianBlur stdDeviation="2"/>
<feComposite in2="hardAlpha" operator="out"/>
<feColorMatrix type="matrix" values="0 0 0 0 1 0 0 0 0 1 0 0 0 0 1 0 0 0 0.25 0"/>
<feBlend mode="normal" in2="BackgroundImageFix" result="effect1_dropShadow_7_2"/>
<feBlend mode="normal" in="SourceGraphic" in2="effect1_dropShadow_7_2" result="shape"/>
<feGaussianBlur stdDeviation="30" result="effect2_foregroundBlur_7_2"/>
</filter>
<filter id="filter1_df_7_2" x="9.50003" y="-8.50034" width="149" height="222" filterUnits="userSpaceOnUse" color-interpolation-filters="sRGB">
<feFlood flood-opacity="0" result="BackgroundImageFix"/>
<feColorMatrix in="SourceAlpha" type="matrix" values="0 0 0 0 0 0 0 0 0 0 0 0 0 0 0 0 0 0 127 0" result="hardAlpha"/>
<feOffset dy="4"/>
<feGaussianBlur stdDeviation="2"/>
<feComposite in2="hardAlpha" operator="out"/>
<feColorMatrix type="matrix" values="0 0 0 0 1 0 0 0 0 1 0 0 0 0 1 0 0 0 0.25 0"/>
<feBlend mode="normal" in2="BackgroundImageFix" result="effect1_dropShadow_7_2"/>
<feBlend mode="normal" in="SourceGraphic" in2="effect1_dropShadow_7_2" result="shape"/>
<feGaussianBlur stdDeviation="30" result="effect2_foregroundBlur_7_2"/>
</filter>
<filter id="filter2_df_7_2" x="33.0005" y="11.9982" width="164.999" height="184.001" filterUnits="userSpaceOnUse" color-interpolation-filters="sRGB">
<feFlood flood-opacity="0" result="BackgroundImageFix"/>
<feColorMatrix in="SourceAlpha" type="matrix" values="0 0 0 0 0 0 0 0 0 0 0 0 0 0 0 0 0 0 127 0" result="hardAlpha"/>
<feOffset dy="4"/>
<feGaussianBlur stdDeviation="2"/>
<feComposite in2="hardAlpha" operator="out"/>
<feColorMatrix type="matrix" values="0 0 0 0 1 0 0 0 0 1 0 0 0 0 1 0 0 0 0.25 0"/>
<feBlend mode="normal" in2="BackgroundImageFix" result="effect1_dropShadow_7_2"/>
<feBlend mode="normal" in="SourceGraphic" in2="effect1_dropShadow_7_2" result="shape"/>
<feGaussianBlur stdDeviation="30" result="effect2_foregroundBlur_7_2"/>
</filter>
<filter id="filter3_df_7_2" x="-22.0001" y="-27.9998" width="247.001" height="267" filterUnits="userSpaceOnUse" color-interpolation-filters="sRGB">
<feFlood flood-opacity="0" result="BackgroundImageFix"/>
<feColorMatrix in="SourceAlpha" type="matrix" values="0 0 0 0 0 0 0 0 0 0 0 0 0 0 0 0 0 0 127 0" result="hardAlpha"/>
<feOffset dy="4"/>
<feGaussianBlur stdDeviation="2"/>
<feComposite in2="hardAlpha" operator="out"/>
<feColorMatrix type="matrix" values="0 0 0 0 1 0 0 0 0 1 0 0 0 0 1 0 0 0 0.25 0"/>
<feBlend mode="normal" in2="BackgroundImageFix" result="effect1_dropShadow_7_2"/>
<feBlend mode="normal" in="SourceGraphic" in2="effect1_dropShadow_7_2" result="shape"/>
<feGaussianBlur stdDeviation="30" result="effect2_foregroundBlur_7_2"/>
</filter>
<filter id="filter4_df_7_2" x="-25.0111" y="-38" width="269.011" height="279.999" filterUnits="userSpaceOnUse" color-interpolation-filters="sRGB">
<feFlood flood-opacity="0" result="BackgroundImageFix"/>
<feColorMatrix in="SourceAlpha" type="matrix" values="0 0 0 0 0 0 0 0 0 0 0 0 0 0 0 0 0 0 127 0" result="hardAlpha"/>
<feOffset dy="4"/>
<feGaussianBlur stdDeviation="2"/>
<feComposite in2="hardAlpha" operator="out"/>
<feColorMatrix type="matrix" values="0 0 0 0 1 0 0 0 0 1 0 0 0 0 1 0 0 0 0.25 0"/>
<feBlend mode="normal" in2="BackgroundImageFix" result="effect1_dropShadow_7_2"/>
<feBlend mode="normal" in="SourceGraphic" in2="effect1_dropShadow_7_2" result="shape"/>
<feGaussianBlur stdDeviation="30" result="effect2_foregroundBlur_7_2"/>
</filter>
<filter id="filter5_df_7_2" x="8.99774" y="-26.0015" width="168.001" height="254.001" filterUnits="userSpaceOnUse" color-interpolation-filters="sRGB">
<feFlood flood-opacity="0" result="BackgroundImageFix"/>
<feColorMatrix in="SourceAlpha" type="matrix" values="0 0 0 0 0 0 0 0 0 0 0 0 0 0 0 0 0 0 127 0" result="hardAlpha"/>
<feOffset dy="4"/>
<feGaussianBlur stdDeviation="2"/>
<feComposite in2="hardAlpha" operator="out"/>
<feColorMatrix type="matrix" values="0 0 0 0 1 0 0 0 0 1 0 0 0 0 1 0 0 0 0.25 0"/>
<feBlend mode="normal" in2="BackgroundImageFix" result="effect1_dropShadow_7_2"/>
<feBlend mode="normal" in="SourceGraphic" in2="effect1_dropShadow_7_2" result="shape"/>
<feGaussianBlur stdDeviation="30" result="effect2_foregroundBlur_7_2"/>
</filter>
<filter id="filter6_df_7_2" x="12.0031" y="-4.99976" width="175.998" height="209" filterUnits="userSpaceOnUse" color-interpolation-filters="sRGB">
<feFlood flood-opacity="0" result="BackgroundImageFix"/>
<feColorMatrix in="SourceAlpha" type="matrix" values="0 0 0 0 0 0 0 0 0 0 0 0 0 0 0 0 0 0 127 0" result="hardAlpha"/>
<feOffset dy="4"/>
<feGaussianBlur stdDeviation="2"/>
<feComposite in2="hardAlpha" operator="out"/>
<feColorMatrix type="matrix" values="0 0 0 0 1 0 0 0 0 1 0 0 0 0 1 0 0 0 0.25 0"/>
<feBlend mode="normal" in2="BackgroundImageFix" result="effect1_dropShadow_7_2"/>
<feBlend mode="normal" in="SourceGraphic" in2="effect1_dropShadow_7_2" result="shape"/>
<feGaussianBlur stdDeviation="30" result="effect2_foregroundBlur_7_2"/>
</filter>
<filter id="filter7_df_7_2" x="-29.0006" y="-7.01089" width="247.002" height="224.011" filterUnits="userSpaceOnUse" color-interpolation-filters="sRGB">
<feFlood flood-opacity="0" result="BackgroundImageFix"/>
<feColorMatrix in="SourceAlpha" type="matrix" values="0 0 0 0 0 0 0 0 0 0 0 0 0 0 0 0 0 0 127 0" result="hardAlpha"/>
<feOffset dy="4"/>
<feGaussianBlur stdDeviation="2"/>
<feComposite in2="hardAlpha" operator="out"/>
<feColorMatrix type="matrix" values="0 0 0 0 1 0 0 0 0 1 0 0 0 0 1 0 0 0 0.25 0"/>
<feBlend mode="normal" in2="BackgroundImageFix" result="effect1_dropShadow_7_2"/>
<feBlend mode="normal" in="SourceGraphic" in2="effect1_dropShadow_7_2" result="shape"/>
<feGaussianBlur stdDeviation="30" result="effect2_foregroundBlur_7_2"/>
</filter>
<filter id="filter8_df_7_2" x="1.00073" y="-21.0005" width="231.999" height="224.005" filterUnits="userSpaceOnUse" color-interpolation-filters="sRGB">
<feFlood flood-opacity="0" result="BackgroundImageFix"/>
<feColorMatrix in="SourceAlpha" type="matrix" values="0 0 0 0 0 0 0 0 0 0 0 0 0 0 0 0 0 0 127 0" result="hardAlpha"/>
<feOffset dy="4"/>
<feGaussianBlur stdDeviation="2"/>
<feComposite in2="hardAlpha" operator="out"/>
<feColorMatrix type="matrix" values="0 0 0 0 1 0 0 0 0 1 0 0 0 0 1 0 0 0 0.25 0"/>
<feBlend mode="normal" in2="BackgroundImageFix" result="effect1_dropShadow_7_2"/>
<feBlend mode="normal" in="SourceGraphic" in2="effect1_dropShadow_7_2" result="shape"/>
<feGaussianBlur stdDeviation="30" result="effect2_foregroundBlur_7_2"/>
</filter>
<filter id="filter9_b_7_2" x="7.128" y="46.632" width="186.197" height="106.016" filterUnits="userSpaceOnUse" color-interpolation-filters="sRGB">
<feFlood flood-opacity="0" result="BackgroundImageFix"/>
<feGaussianBlur in="BackgroundImageFix" stdDeviation="10"/>
<feComposite in2="SourceAlpha" operator="in" result="effect1_backgroundBlur_7_2"/>
<feBlend mode="normal" in="SourceGraphic" in2="effect1_backgroundBlur_7_2" result="shape"/>
</filter>
<linearGradient id="paint0_linear_7_2" x1="109.5" y1="32" x2="109.5" y2="172" gradientUnits="userSpaceOnUse">
<stop stop-color="#0500FF"/>
<stop offset="0.142857" stop-color="#220084"/>
<stop offset="0.285714" stop-color="#FF0000"/>
<stop offset="0.428571" stop-color="#00F0FF"/>
<stop offset="0.571429" stop-color="#00CAC8"/>
<stop offset="0.714286" stop-color="#004B11"/>
<stop offset="0.857143" stop-color="#004B11"/>
<stop offset="1" stop-color="#004B11"/>
</linearGradient>
<linearGradient id="paint1_linear_7_2" x1="93" y1="44" x2="93" y2="158" gradientUnits="userSpaceOnUse">
<stop stop-color="#0500FF"/>
<stop offset="0.142857" stop-color="#220084"/>
<stop offset="0.285714" stop-color="#FF0000"/>
<stop offset="0.428571" stop-color="#00F0FF"/>
<stop offset="0.571429" stop-color="#00CAC8"/>
<stop offset="0.714286" stop-color="#004B11"/>
<stop offset="0.857143" stop-color="#004B11"/>
<stop offset="1" stop-color="#004B11"/>
</linearGradient>
<linearGradient id="paint2_linear_7_2" x1="100" y1="65" x2="100" y2="134" gradientUnits="userSpaceOnUse">
<stop stop-color="#0500FF"/>
<stop offset="0.142857" stop-color="#220084"/>
<stop offset="0.285714" stop-color="#FF0000"/>
<stop offset="0.428571" stop-color="#00F0FF"/>
<stop offset="0.571429" stop-color="#00CAC8"/>
<stop offset="0.714286" stop-color="#004B11"/>
<stop offset="0.857143" stop-color="#004B11"/>
<stop offset="1" stop-color="#004B11"/>
</linearGradient>
<linearGradient id="paint3_linear_7_2" x1="94.5" y1="63" x2="94.5" y2="147" gradientUnits="userSpaceOnUse">
<stop stop-color="#0500FF"/>
<stop offset="0.142857" stop-color="#220084"/>
<stop offset="0.285714" stop-color="#FF0000"/>
<stop offset="0.428571" stop-color="#00F0FF"/>
<stop offset="0.571429" stop-color="#00CAC8"/>
<stop offset="0.714286" stop-color="#004B11"/>
<stop offset="0.857143" stop-color="#004B11"/>
<stop offset="1" stop-color="#004B11"/>
</linearGradient>
<linearGradient id="paint4_linear_7_2" x1="117" y1="49" x2="117" y2="133" gradientUnits="userSpaceOnUse">
<stop stop-color="#0500FF"/>
<stop offset="0.142857" stop-color="#220084"/>
<stop offset="0.285714" stop-color="#FF0000"/>
<stop offset="0.428571" stop-color="#00F0FF"/>
<stop offset="0.571429" stop-color="#00CAC8"/>
<stop offset="0.714286" stop-color="#004B11"/>
<stop offset="0.857143" stop-color="#004B11"/>
<stop offset="1" stop-color="#004B11"/>
</linearGradient>
<clipPath id="clip0_7_2">
<rect width="200" height="200" rx="36" fill="white"/>
</clipPath>
</defs>
</svg>
